<svg width="352" height="198" viewBox="0 0 352 198" fill="none" xmlns="http://www.w3.org/2000/svg">
<g clip-path="url(#clip0)">
<path opacity="0.1" d="M195.974 27.0049C175.666 26.8883 156.201 21.7062 137.591 15.9673C118.981 10.2284 100.536 3.83565 80.6462 1.02608C67.8539 -0.773594 53.2758 -0.718572 43.1541 5.42169C33.4149 11.3321 30.4591 21.198 28.9649 30.3226C27.8371 37.1879 27.2537 44.3996 30.9484 50.7146C33.5121 55.0973 37.962 58.7258 41.0831 62.9077C51.9373 77.4573 44.9723 95.891 33.9529 110.622C28.7672 117.532 22.7519 124.152 18.8109 131.467C14.8698 138.782 13.1682 147.104 16.9473 154.377C20.6939 161.589 29.3344 166.865 38.6426 170.5C57.5507 177.877 79.6609 179.582 101.194 180.33C148.873 181.987 196.707 179.612 244.411 177.239C262.068 176.359 279.8 175.472 297.12 172.707C306.739 171.167 316.654 168.846 323.537 163.664C332.288 157.08 334.233 146.25 328.075 138.416C317.755 125.272 290.032 122.614 282.701 108.418C278.662 100.601 282.396 91.6961 287.808 84.2255C299.418 68.2 319.178 53.9061 319.801 35.8964C320.228 23.5253 310.265 11.3872 295.185 5.90398C279.356 0.135952 257.674 1.43068 246.356 11.8533C234.714 22.5834 213.92 27.1084 195.974 27.0049Z" fill="#2871FF"/>
<path d="M184.427 78.9592C184.427 78.9592 175.52 63.1991 162.103 58.6578C156.464 56.7878 151.584 53.1421 148.195 48.2676C146.605 45.9413 145.231 43.4743 144.092 40.8973" stroke="#535461" stroke-width="2" stroke-miterlimit="10"/>
<path d="M135.659 37.9842C137.186 39.4666 144.306 40.9977 144.306 40.9977C144.306 40.9977 142.559 33.9381 141.033 32.4557C140.299 31.744 139.312 31.3527 138.289 31.3679C137.266 31.3831 136.291 31.8035 135.578 32.5366C134.865 33.2697 134.474 34.2555 134.489 35.2771C134.504 36.2988 134.925 37.2725 135.659 37.9842Z" fill="#2871FF"/>
<path d="M139.701 50.7696C141.791 51.184 148.604 48.6042 148.604 48.6042C148.604 48.6042 143.266 43.6195 141.188 43.2052C140.184 43.0082 139.142 43.2177 138.293 43.7877C137.443 44.3577 136.855 45.2414 136.657 46.2446C136.46 47.2477 136.67 48.288 137.241 49.1366C137.811 49.9852 138.696 50.5726 139.701 50.7696Z" fill="#2871FF"/>
<path d="M154.35 64.5877C156.363 63.8917 160.939 58.2338 160.939 58.2338C160.939 58.2338 153.841 56.6154 151.829 57.308C151.343 57.4681 150.895 57.7229 150.509 58.0576C150.123 58.3923 149.808 58.8002 149.581 59.2577C149.355 59.7152 149.221 60.213 149.189 60.7224C149.157 61.2318 149.226 61.7424 149.393 62.2248C149.56 62.7071 149.822 63.1515 150.162 63.532C150.503 63.9126 150.916 64.2218 151.377 64.4417C151.838 64.6615 152.338 64.7876 152.849 64.8127C153.359 64.8378 153.869 64.7613 154.35 64.5877Z" fill="#2871FF"/>
<path d="M167.807 72.5567C169.907 72.2104 175.374 67.4037 175.374 67.4037C175.374 67.4037 168.653 64.6071 166.549 64.9534C165.54 65.12 164.638 65.6802 164.042 66.5109C163.446 67.3416 163.205 68.3748 163.371 69.383C163.538 70.3913 164.099 71.2921 164.931 71.8873C165.763 72.4825 166.797 72.7233 167.807 72.5567Z" fill="#2871FF"/>
<path d="M154.522 43.0789C154.522 45.2088 150.668 51.3782 150.668 51.3782C150.668 51.3782 146.808 45.212 146.808 43.0822C146.808 42.0606 147.215 41.0809 147.938 40.3585C148.661 39.6362 149.642 39.2303 150.665 39.2303C151.688 39.2303 152.669 39.6362 153.392 40.3585C154.115 41.0809 154.522 42.0606 154.522 43.0822V43.0789Z" fill="#2871FF"/>
<path d="M170.14 52.5952C169.492 54.628 163.982 59.3634 163.982 59.3634C163.982 59.3634 162.148 52.3233 162.783 50.3003C163.089 49.3251 163.77 48.5111 164.676 48.0373C165.583 47.5635 166.641 47.4688 167.617 47.774C168.594 48.0791 169.409 48.7592 169.883 49.6646C170.357 50.57 170.452 51.6265 170.147 52.6017L170.14 52.5952Z" fill="#2871FF"/>
<path d="M184.047 63.9241C183.765 66.0345 179.118 71.6375 179.118 71.6375C179.118 71.6375 176.12 65.0084 176.402 62.898C176.538 61.8855 177.072 60.9684 177.885 60.3487C178.698 59.7289 179.724 59.4572 180.738 59.5932C181.752 59.7293 182.67 60.262 183.291 61.0742C183.912 61.8864 184.184 62.9116 184.047 63.9241Z" fill="#2871FF"/>
<path opacity="0.25" d="M135.659 37.9842C137.186 39.4666 144.306 40.9977 144.306 40.9977C144.306 40.9977 142.559 33.9381 141.033 32.4557C140.299 31.744 139.312 31.3527 138.289 31.3679C137.266 31.3831 136.291 31.8035 135.578 32.5366C134.865 33.2697 134.474 34.2555 134.489 35.2771C134.504 36.2988 134.925 37.2725 135.659 37.9842Z" fill="black"/>
<path opacity="0.25" d="M139.701 50.7696C141.791 51.184 148.604 48.6042 148.604 48.6042C148.604 48.6042 143.266 43.6195 141.188 43.2052C140.184 43.0082 139.142 43.2177 138.293 43.7877C137.443 44.3577 136.855 45.2414 136.657 46.2446C136.46 47.2477 136.67 48.288 137.241 49.1366C137.811 49.9852 138.696 50.5726 139.701 50.7696Z" fill="black"/>
<path opacity="0.25" d="M154.35 64.5877C156.363 63.8917 160.939 58.2338 160.939 58.2338C160.939 58.2338 153.841 56.6154 151.829 57.308C151.343 57.4681 150.895 57.7229 150.509 58.0576C150.123 58.3923 149.808 58.8002 149.581 59.2577C149.355 59.7152 149.221 60.213 149.189 60.7224C149.157 61.2318 149.226 61.7424 149.393 62.2248C149.56 62.7071 149.822 63.1515 150.162 63.532C150.503 63.9126 150.916 64.2218 151.377 64.4417C151.838 64.6615 152.338 64.7876 152.849 64.8127C153.359 64.8378 153.869 64.7613 154.35 64.5877Z" fill="black"/>
<path opacity="0.25" d="M167.807 72.5567C169.907 72.2104 175.374 67.4037 175.374 67.4037C175.374 67.4037 168.653 64.6071 166.549 64.9534C165.54 65.12 164.638 65.6802 164.042 66.5109C163.446 67.3416 163.205 68.3748 163.371 69.383C163.538 70.3913 164.099 71.2921 164.931 71.8873C165.763 72.4825 166.797 72.7233 167.807 72.5567Z" fill="black"/>
<path opacity="0.25" d="M154.522 43.0789C154.522 45.2088 150.668 51.3782 150.668 51.3782C150.668 51.3782 146.808 45.212 146.808 43.0822C146.808 42.0606 147.215 41.0809 147.938 40.3585C148.661 39.6362 149.642 39.2303 150.665 39.2303C151.688 39.2303 152.669 39.6362 153.392 40.3585C154.115 41.0809 154.522 42.0606 154.522 43.0822V43.0789Z" fill="black"/>
<path opacity="0.25" d="M170.14 52.5952C169.492 54.628 163.982 59.3634 163.982 59.3634C163.982 59.3634 162.148 52.3233 162.783 50.3003C163.089 49.3251 163.77 48.5111 164.676 48.0373C165.583 47.5635 166.641 47.4688 167.617 47.774C168.594 48.0791 169.409 48.7592 169.883 49.6646C170.357 50.57 170.452 51.6265 170.147 52.6017L170.14 52.5952Z" fill="black"/>
<path opacity="0.25" d="M184.047 63.9241C183.765 66.0345 179.118 71.6375 179.118 71.6375C179.118 71.6375 176.12 65.0084 176.402 62.898C176.538 61.8855 177.072 60.9684 177.885 60.3487C178.698 59.7289 179.724 59.4572 180.738 59.5932C181.752 59.7293 182.67 60.262 183.291 61.0742C183.912 61.8864 184.184 62.9116 184.047 63.9241Z" fill="black"/>
<path d="M183.918 78.6485C183.918 78.6485 182.168 60.6323 171.748 51.0513C167.35 47.0608 164.367 41.7533 163.247 35.9256C162.737 33.1548 162.483 30.3431 162.488 27.526" stroke="#535461" stroke-width="2" stroke-miterlimit="10"/>
<path d="M155.958 21.4472C156.752 23.4217 162.641 27.704 162.641 27.704C162.641 27.704 163.908 20.5409 163.11 18.5664C162.927 18.0895 162.65 17.6539 162.296 17.2849C161.942 16.9159 161.518 16.6209 161.049 16.4172C160.579 16.2135 160.074 16.105 159.563 16.0982C159.051 16.0913 158.543 16.1862 158.069 16.3774C157.594 16.5685 157.162 16.852 156.798 17.2114C156.435 17.5708 156.146 17.9989 155.95 18.4707C155.753 18.9426 155.653 19.4487 155.654 19.9598C155.655 20.4708 155.759 20.9764 155.958 21.4472Z" fill="#2871FF"/>
<path d="M154.454 34.7603C156.197 35.9838 163.467 36.3787 163.467 36.3787C163.467 36.3787 160.634 29.6785 158.894 28.455C158.057 27.8669 157.021 27.6349 156.013 27.8101C155.005 27.9852 154.108 28.5531 153.519 29.3888C152.93 30.2245 152.698 31.2596 152.873 32.2663C153.048 33.2731 153.617 34.169 154.454 34.7571V34.7603Z" fill="#2871FF"/>
<path d="M162.252 53.3365C164.374 53.5145 170.853 50.1903 170.853 50.1903C170.853 50.1903 165.019 45.8367 162.897 45.6587C161.877 45.5729 160.865 45.895 160.084 46.5542C159.302 47.2134 158.815 48.1558 158.729 49.1739C158.643 50.192 158.965 51.2026 159.625 51.9832C160.285 52.7638 161.229 53.2506 162.248 53.3365H162.252Z" fill="#2871FF"/>
<path d="M171.32 66.0637C173.381 66.5977 180.33 64.4161 180.33 64.4161C180.33 64.4161 175.316 59.1401 173.255 58.5898C172.756 58.4327 172.231 58.3785 171.711 58.4305C171.19 58.4824 170.686 58.6395 170.228 58.8921C169.771 59.1448 169.369 59.4877 169.049 59.9C168.728 60.3124 168.494 60.7856 168.362 61.2909C168.23 61.7962 168.203 62.3229 168.281 62.8393C168.359 63.3556 168.542 63.8506 168.817 64.2943C169.093 64.738 169.456 65.121 169.885 65.4202C170.313 65.7194 170.798 65.9284 171.31 66.0345L171.32 66.0637Z" fill="#2871FF"/>
<path d="M171.138 33.7407C170.276 35.6828 164.248 39.7677 164.248 39.7677C164.248 39.7677 163.221 32.569 164.083 30.6236C164.497 29.6892 165.265 28.9572 166.22 28.5888C167.174 28.2203 168.236 28.2455 169.171 28.6589C170.107 29.0722 170.84 29.8399 171.209 30.7929C171.578 31.7459 171.552 32.8063 171.138 33.7407Z" fill="#2871FF"/>
<path d="M181.552 48.7628C180.145 50.3586 173.171 52.4528 173.171 52.4528C173.171 52.4528 174.347 45.2768 175.763 43.6778C176.098 43.2976 176.504 42.9868 176.958 42.7633C177.413 42.5398 177.907 42.4079 178.413 42.3752C178.918 42.3424 179.425 42.4094 179.905 42.5724C180.385 42.7353 180.828 42.9911 181.208 43.325C181.589 43.6588 181.9 44.0644 182.124 44.5183C182.348 44.9723 182.48 45.4659 182.513 45.9708C182.545 46.4758 182.478 46.9822 182.315 47.4613C182.152 47.9403 181.896 48.3826 181.562 48.7628H181.552Z" fill="#2871FF"/>
<path d="M189.671 64.7463C188.556 66.5589 182.035 69.8022 182.035 69.8022C182.035 69.8022 181.98 62.5291 183.095 60.7132C183.644 59.8733 184.501 59.2807 185.481 59.0612C186.461 58.8417 187.489 59.0127 188.345 59.5379C189.201 60.063 189.819 60.9008 190.066 61.8734C190.314 62.846 190.172 63.8766 189.671 64.7463Z" fill="#2871FF"/>
<path opacity="0.1" d="M267.873 193.206C268.829 195.148 262.065 197.236 253.687 197.838C246.181 198.379 240.01 197.498 239.229 195.919C238.448 194.339 243.228 192.423 250.572 191.559C258.769 190.601 266.917 191.284 267.873 193.206Z" fill="#2871FF"/>
<path d="M70.8972 90.4855L174.149 53.9644V180.133L70.8972 177.983V90.4855Z" fill="white"/>
<path opacity="0.2" d="M70.8972 90.4855L174.149 53.9644V180.133L70.8972 177.983V90.4855Z" fill="#2871FF"/>
<path d="M0 111.321L58.9054 90.4855V177.983H0V111.321Z" fill="white"/>
<path opacity="0.2" d="M0 111.321L58.9054 90.4855V177.983H0V111.321Z" fill="#2871FF"/>
<path d="M174.149 53.9644L277.398 90.4855V177.983L174.149 180.133V53.9644Z" fill="white"/>
<path opacity="0.5" d="M174.149 53.9644L277.398 90.4855V177.983L174.149 180.133V53.9644Z" fill="#2871FF"/>
<path d="M349.362 111.583L289.714 90.4855V177.983H349.362V111.583Z" fill="white"/>
<path opacity="0.5" d="M349.362 111.583L289.714 90.4855V177.983H349.362V111.583Z" fill="#2871FF"/>
<path d="M34.3256 126.511C33.9075 126.511 33.5672 127.081 33.5672 127.783V143.618C33.5893 145.18 33.2206 146.723 32.4944 148.107C31.817 149.295 30.7799 150.05 29.7882 150.05H29.14C28.1677 150.05 27.2148 149.325 26.4694 148.046C25.6922 146.666 25.2868 145.108 25.2929 143.524V123.093C25.2726 121.964 25.5641 120.851 26.1355 119.876C26.6768 119.021 27.3866 118.549 28.132 118.549C28.8774 118.549 29.5613 119.021 30.0766 119.869C30.6232 120.859 30.8982 121.976 30.8739 123.106V142.184C30.8739 143.576 30.2257 144.806 29.4608 144.806C28.8126 144.806 28.0866 143.757 28.0866 142.184V131.289C28.0866 130.59 27.7463 130.017 27.3282 130.017C26.9101 130.017 26.5666 130.59 26.5666 131.289V142.171C26.5666 145.065 27.8111 147.247 29.4608 147.247C30.2646 147.247 31.0068 146.748 31.5416 145.838C32.1396 144.711 32.4334 143.447 32.3939 142.171V123.093C32.4273 121.333 31.9899 119.595 31.1267 118.06C30.3229 116.717 29.2502 115.982 28.1061 115.982C26.962 115.982 25.8892 116.717 25.0757 118.06C24.2104 119.598 23.7739 121.339 23.8117 123.103V143.531C23.8117 145.871 24.4081 148.247 25.3998 149.885C26.3916 151.522 27.7334 152.474 29.1076 152.474H29.772C31.117 152.474 32.4652 151.522 33.47 149.859C33.9901 148.98 34.3819 148.032 34.6335 147.043C34.9239 145.922 35.0699 144.769 35.0678 143.612V127.751C35.0678 127.049 34.7437 126.479 34.3126 126.479L34.3256 126.511Z" fill="white"/>
<path d="M179.426 161.767C179.426 161.767 181.348 164.279 178.538 168.069C175.728 171.859 173.407 175.064 174.347 177.42C174.347 177.42 178.586 170.38 182.035 170.299C185.483 170.218 183.218 166.001 179.426 161.767Z" fill="#2871FF"/>
<path opacity="0.1" d="M179.426 161.767C179.593 162.011 179.725 162.277 179.818 162.557C183.182 166.506 184.974 170.189 181.74 170.283C178.726 170.37 175.112 175.75 174.247 177.11C174.273 177.219 174.307 177.328 174.347 177.433C174.347 177.433 178.586 170.393 182.035 170.312C185.483 170.231 183.218 166.001 179.426 161.767Z" fill="black"/>
<path d="M182.997 164.968C182.997 165.852 182.897 166.567 182.774 166.567C182.651 166.567 182.553 165.852 182.553 164.968C182.553 164.085 182.676 164.499 182.8 164.499C182.923 164.499 182.997 164.085 182.997 164.968Z" fill="#FFD037"/>
<path d="M184.222 166.023C183.448 166.444 182.77 166.7 182.712 166.593C182.654 166.486 183.234 166.056 184.009 165.622C184.783 165.188 184.479 165.509 184.537 165.622C184.595 165.735 185 165.599 184.222 166.023Z" fill="#FFD037"/>
<path d="M169.272 161.767C169.272 161.767 167.35 164.279 170.16 168.069C172.97 171.859 175.284 175.064 174.347 177.42C174.347 177.42 170.111 170.38 166.659 170.299C163.208 170.218 165.476 166.001 169.272 161.767Z" fill="#2871FF"/>
<path opacity="0.1" d="M169.272 161.767C169.105 162.011 168.973 162.277 168.879 162.557C165.512 166.506 163.72 170.189 166.958 170.283C169.968 170.37 173.585 175.75 174.451 177.11C174.423 177.219 174.388 177.328 174.347 177.433C174.347 177.433 170.111 170.393 166.659 170.312C163.208 170.231 165.476 166.001 169.272 161.767Z" fill="black"/>
<path d="M165.7 164.968C165.7 165.852 165.797 166.567 165.92 166.567C166.044 166.567 166.144 165.852 166.144 164.968C166.144 164.085 166.018 164.499 165.898 164.499C165.778 164.499 165.7 164.085 165.7 164.968Z" fill="#FFD037"/>
<path d="M164.472 166.023C165.25 166.444 165.927 166.7 165.985 166.593C166.044 166.486 165.463 166.056 164.689 165.622C163.914 165.188 164.219 165.509 164.161 165.622C164.102 165.735 163.684 165.599 164.472 166.023Z" fill="#FFD037"/>
<path opacity="0.1" d="M174.347 196.621C185.445 196.621 194.441 195.243 194.441 193.543C194.441 191.843 185.445 190.465 174.347 190.465C163.249 190.465 154.253 191.843 154.253 193.543C154.253 195.243 163.249 196.621 174.347 196.621Z" fill="#2871FF"/>
<path d="M184.692 174.038L184.595 174.821L184.459 175.928L184.404 176.388L184.268 177.498L184.209 177.958L184.077 179.065L182.537 191.656C182.401 192.779 180.563 193.656 178.343 193.656H170.354C168.134 193.656 166.3 192.779 166.16 191.656L164.621 179.065L164.485 177.958L164.43 177.498L164.293 176.388L164.235 175.928L164.102 174.821L164.005 174.038C163.927 173.39 164.922 172.863 166.18 172.863H182.521C183.778 172.863 184.77 173.4 184.692 174.038Z" fill="#444053"/>
<path d="M184.595 174.821L184.459 175.928H164.235L164.102 174.821H184.595Z" fill="#9D9CB5"/>
<path d="M184.404 176.391L184.268 177.498H164.43L164.293 176.391H184.404Z" fill="#9D9CB5"/>
<path d="M184.209 177.961L184.077 179.068H164.621L164.485 177.961H184.209Z" fill="#9D9CB5"/>
<path d="M135.28 105.666L132.185 109.774C132.159 109.812 132.122 109.842 132.08 109.86C132.037 109.878 131.99 109.883 131.945 109.874L128.746 109.11C128.686 109.087 128.633 109.048 128.594 108.996C128.555 108.945 128.531 108.883 128.526 108.819L127.955 104.588C127.938 104.475 127.965 104.359 128.03 104.265L131.118 100.164C131.234 99.999 131.29 99.7999 131.277 99.5992C131.264 99.3986 131.183 99.2083 131.047 99.0599C130.462 98.4767 129.682 98.1308 128.856 98.0888C128.811 98.0838 128.765 98.0838 128.72 98.0888C127.858 98.1536 126.011 98.7912 124.585 100.795C123.201 102.737 121.752 106.317 123.035 110.318C123.188 110.8 123.359 111.438 122.847 112.114C122.335 112.791 109.089 129.269 109.089 129.269C107.848 130.684 107.939 133.299 109.089 134.82C109.334 135.168 109.656 135.454 110.03 135.656C110.404 135.858 110.82 135.971 111.245 135.986C111.658 135.978 112.063 135.864 112.42 135.655C112.777 135.446 113.075 135.148 113.283 134.791C113.283 134.791 125.644 117.377 126.247 116.584C126.328 116.451 126.44 116.34 126.573 116.26C126.706 116.179 126.857 116.132 127.012 116.121C127.226 116.132 127.432 116.208 127.602 116.338C128.259 116.787 129.039 117.023 129.835 117.015C131.682 117.015 133.624 115.882 134.81 114.315C136.033 112.74 136.744 110.829 136.849 108.838C136.89 107.752 136.635 106.675 136.113 105.721C136.078 105.643 136.023 105.576 135.954 105.526C135.884 105.476 135.803 105.446 135.718 105.439C135.632 105.432 135.547 105.448 135.47 105.485C135.393 105.522 135.327 105.579 135.28 105.65V105.666ZM111.945 132.839C111.87 132.953 111.768 133.046 111.649 133.111C111.529 133.175 111.395 133.209 111.259 133.209C111.123 133.209 110.989 133.175 110.87 133.111C110.75 133.046 110.648 132.953 110.574 132.839C110.393 132.572 110.296 132.256 110.296 131.933C110.296 131.61 110.393 131.294 110.574 131.027C110.648 130.913 110.75 130.82 110.87 130.756C110.989 130.691 111.123 130.657 111.259 130.657C111.395 130.657 111.529 130.691 111.649 130.756C111.768 130.82 111.87 130.913 111.945 131.027C112.126 131.294 112.224 131.61 112.224 131.933C112.225 132.256 112.129 132.571 111.948 132.839H111.945Z" fill="white"/>
<path d="M244.862 113.606C244.006 103.727 237.301 96.0302 229.143 96.0302C223.743 96.0302 218.989 99.3933 216.133 104.53C215.257 104.076 214.285 103.838 213.298 103.834C209.175 103.834 205.843 108.366 205.769 113.473C201.555 115.144 198.781 120.271 198.781 125.65C198.781 132.244 203.072 138.064 208.362 138.064H243.183C248.476 138.064 252.767 132.237 252.767 125.65C252.767 119.779 249.351 114.603 244.862 113.606ZM236.996 111.34L222.901 128.981C222.719 129.204 222.252 129.703 221.676 129.703C221.429 129.674 221.191 129.593 220.978 129.463C220.765 129.334 220.583 129.161 220.444 128.955L214.529 121.591C214.447 121.484 214.403 121.353 214.403 121.218C214.403 121.083 214.447 120.951 214.529 120.844L216.406 118.507C216.439 118.46 216.484 118.421 216.535 118.393C216.586 118.366 216.643 118.35 216.701 118.348C216.759 118.35 216.816 118.365 216.867 118.393C216.918 118.42 216.962 118.459 216.996 118.507L221.679 124.333L234.539 108.191C234.573 108.144 234.618 108.106 234.669 108.078C234.72 108.051 234.776 108.035 234.834 108.032C234.893 108.033 234.95 108.047 235.001 108.075C235.053 108.103 235.097 108.142 235.129 108.191L236.973 110.57C237.064 110.675 237.115 110.808 237.119 110.946C237.123 111.085 237.08 111.22 236.996 111.331V111.34Z" fill="white"/>
<path d="M330.22 129.25C331.991 129.25 333.426 127.338 333.426 124.98C333.426 122.622 331.991 120.711 330.22 120.711C328.45 120.711 327.015 122.622 327.015 124.98C327.015 127.338 328.45 129.25 330.22 129.25Z" fill="white"/>
<path d="M330.22 130.897C329.867 130.896 329.516 130.839 329.18 130.729L326.017 135.024C325.99 135.06 325.976 135.104 325.976 135.149C325.976 135.194 325.99 135.237 326.017 135.274L331.044 142.395C331.21 142.635 331.299 142.921 331.299 143.213C331.299 143.506 331.21 143.792 331.044 144.032C330.973 144.13 330.88 144.209 330.773 144.265C330.667 144.322 330.548 144.353 330.428 144.356C330.308 144.353 330.19 144.322 330.084 144.266C329.977 144.21 329.886 144.13 329.815 144.032L324.808 136.911C324.797 136.895 324.783 136.882 324.766 136.873C324.749 136.864 324.73 136.859 324.711 136.859C324.691 136.859 324.672 136.864 324.656 136.873C324.639 136.882 324.624 136.895 324.613 136.911L323.392 138.569C322.371 139.947 321.016 139.74 319.557 139.75C318.099 139.76 316.683 138.931 315.646 137.533L314.472 135.94C314.462 135.924 314.447 135.911 314.43 135.902C314.413 135.893 314.394 135.888 314.375 135.888C314.356 135.888 314.337 135.893 314.32 135.902C314.303 135.911 314.288 135.924 314.278 135.94L309.27 143.061C309.199 143.159 309.107 143.238 309 143.294C308.893 143.351 308.775 143.382 308.655 143.385C308.534 143.382 308.417 143.351 308.31 143.295C308.204 143.239 308.112 143.159 308.042 143.061C307.876 142.82 307.787 142.535 307.787 142.242C307.787 141.95 307.876 141.664 308.042 141.423L313.069 134.302C313.091 134.265 313.103 134.222 313.103 134.178C313.103 134.134 313.091 134.091 313.069 134.053L305.877 124.304C305.79 124.187 305.65 124.268 305.65 124.427V143.939C305.65 145.505 306.623 146.787 307.786 146.787L331.29 147.758C332.466 147.758 333.426 146.463 333.426 144.91V129.072C332.619 130.195 331.484 130.897 330.22 130.897Z" fill="white"/>
<path d="M325.78 124.98C325.776 124.004 325.962 123.037 326.328 122.132L307.78 121.161C307.528 121.167 307.28 121.226 307.052 121.334C306.825 121.441 306.622 121.595 306.457 121.786L316.935 135.995C317.221 136.429 317.608 136.788 318.062 137.042C318.516 137.295 319.025 137.436 319.545 137.452C320.517 137.452 321.463 137.908 322.157 136.966L327.53 129.677C326.464 128.593 325.78 126.893 325.78 124.98Z" fill="white"/>
<path d="M351.929 176.158C351.929 176.158 348.14 175.931 348.587 178.579C348.563 178.712 348.581 178.85 348.639 178.973C348.697 179.095 348.792 179.196 348.911 179.262C348.911 179.262 348.911 179.065 349.3 179.133C349.436 179.155 349.574 179.161 349.712 179.152C349.897 179.138 350.073 179.065 350.214 178.945C350.214 178.945 351.277 178.505 351.692 176.766C351.692 176.766 352 176.388 351.987 176.291L351.339 176.562C351.461 176.828 351.477 177.13 351.384 177.407C351.384 177.407 351.365 176.579 351.242 176.598C351.216 176.598 350.917 176.76 350.917 176.76C350.917 176.76 351.293 177.559 351.011 178.142C351.011 178.142 351.118 177.171 350.801 176.818L350.35 177.08C350.35 177.08 350.791 177.906 350.493 178.582C350.493 178.582 350.571 177.546 350.256 177.142L349.848 177.466C349.848 177.466 350.263 178.284 350.01 178.844C350.01 178.844 349.978 177.637 349.76 177.55C349.606 177.68 349.468 177.829 349.349 177.993C349.349 177.993 349.631 178.586 349.456 178.896C349.456 178.896 349.349 178.093 349.261 178.09C349.076 178.362 348.943 178.666 348.869 178.987C348.887 178.649 348.994 178.322 349.177 178.038C348.972 178.077 348.783 178.175 348.633 178.32C348.633 178.32 348.688 177.945 349.281 177.909C349.388 177.753 349.512 177.61 349.65 177.482C349.339 177.455 349.026 177.491 348.73 177.589C348.73 177.589 349.054 177.233 349.757 177.394L350.159 177.071C349.803 177.013 349.439 177.013 349.083 177.071C349.083 177.071 349.453 176.747 350.266 176.987L350.707 176.724C350.37 176.65 350.024 176.62 349.679 176.634C350.053 176.494 350.465 176.501 350.833 176.653L351.157 176.514C351.157 176.514 350.684 176.42 350.548 176.407C350.412 176.394 350.402 176.352 350.402 176.352C350.701 176.303 351.007 176.338 351.287 176.452C351.509 176.373 351.724 176.275 351.929 176.158Z" fill="#2871FF"/>
<path opacity="0.1" d="M349.32 179.945C350.8 179.945 352 179.742 352 179.492C352 179.242 350.8 179.039 349.32 179.039C347.839 179.039 346.639 179.242 346.639 179.492C346.639 179.742 347.839 179.945 349.32 179.945Z" fill="#2871FF"/>
<path d="M293.578 176.268C293.578 176.268 289.008 175.993 289.546 179.181C289.518 179.343 289.542 179.51 289.615 179.658C289.687 179.806 289.805 179.926 289.951 180.003C289.951 180.003 289.951 179.767 290.421 179.848C290.585 179.876 290.751 179.883 290.917 179.871C291.142 179.856 291.356 179.769 291.526 179.621C291.526 179.621 292.822 179.09 293.309 176.993C293.309 176.993 293.681 176.537 293.665 176.417L292.894 176.741C293.041 177.06 293.061 177.423 292.949 177.757C292.949 177.757 292.926 176.76 292.777 176.786C292.748 176.786 292.375 176.977 292.375 176.977C292.375 176.977 292.829 177.948 292.489 178.65C292.489 178.65 292.618 177.456 292.232 177.032L291.691 177.356C291.691 177.356 292.22 178.356 291.863 179.175C291.863 179.175 291.954 177.922 291.578 177.433L291.085 177.818C291.085 177.818 291.584 178.789 291.28 179.479C291.28 179.479 291.241 178.022 290.978 177.912C290.792 178.069 290.625 178.249 290.482 178.446C290.482 178.446 290.806 179.162 290.612 179.54C290.612 179.54 290.482 178.569 290.375 178.569C290.152 178.899 289.992 179.266 289.902 179.654C289.924 179.246 290.051 178.851 290.272 178.508C290.029 178.552 289.804 178.664 289.623 178.832C289.623 178.832 289.692 178.375 290.388 178.336C290.517 178.147 290.667 177.973 290.836 177.818C290.46 177.786 290.082 177.83 289.724 177.948C289.724 177.948 290.093 177.517 290.962 177.712L291.448 177.317C291.019 177.247 290.581 177.247 290.152 177.317C290.152 177.317 290.596 176.938 291.581 177.213L292.109 176.889C291.702 176.8 291.285 176.764 290.868 176.783C290.868 176.783 291.357 176.517 292.265 176.802L292.641 176.634C292.641 176.634 292.074 176.524 291.905 176.504C291.737 176.485 291.73 176.439 291.73 176.439C292.091 176.38 292.461 176.422 292.8 176.559C293.067 176.486 293.328 176.388 293.578 176.268Z" fill="#2871FF"/>
<path opacity="0.1" d="M290.43 180.842C292.217 180.842 293.665 180.597 293.665 180.295C293.665 179.992 292.217 179.747 290.43 179.747C288.644 179.747 287.196 179.992 287.196 180.295C287.196 180.597 288.644 180.842 290.43 180.842Z" fill="#2871FF"/>
<path d="M264.907 144.359C264.907 144.359 265.28 144 265.157 143.757C265.121 143.682 265.102 143.6 265.102 143.516C265.102 143.433 265.121 143.35 265.157 143.275C265.157 143.275 264.321 139.993 264.01 139.663C263.805 139.422 263.648 139.145 263.546 138.847C263.579 138.783 263.594 138.712 263.592 138.64C263.578 138.309 263.465 137.99 263.268 137.724C263.024 137.365 262.89 136.943 262.882 136.51C262.879 136.456 262.879 136.402 262.882 136.348C262.789 136.105 262.638 135.887 262.443 135.714C262.248 135.541 262.014 135.418 261.76 135.354C261.867 134.659 262.013 133.963 262.059 133.263C262.204 131.072 261.388 128.946 260.584 126.893C260.408 126.385 260.172 125.899 259.881 125.447C259.521 124.974 259.066 124.582 258.544 124.298C258.022 124.013 257.446 123.842 256.854 123.796C256.417 123.741 255.975 123.784 255.557 123.922C255.145 124.107 254.767 124.36 254.439 124.67C254.092 124.961 253.745 125.259 253.425 125.576L253.386 125.615L253.272 125.735L253.227 125.78L253.12 125.9L253.081 125.942C253.036 125.997 252.987 126.052 252.942 126.11C252.9 126.165 252.857 126.217 252.819 126.272L252.78 126.327L252.695 126.447L252.656 126.508C252.627 126.55 252.605 126.592 252.579 126.634L252.543 126.693C252.511 126.754 252.475 126.816 252.443 126.88L252.326 127.139V127.175L252.258 127.347C252.17 127.554 252.086 127.761 251.979 127.958L251.96 127.991L251.726 128.272C251.62 128.412 251.531 128.564 251.461 128.725L251.438 128.777C251.438 128.8 251.422 128.826 251.412 128.848L251.389 128.907C251.383 128.932 251.376 128.957 251.367 128.981C251.367 129.001 251.367 129.02 251.367 129.043L251.347 129.114C251.347 129.136 251.347 129.156 251.347 129.179C251.347 129.201 251.347 129.227 251.331 129.25V129.318V129.389C251.331 129.415 251.331 129.441 251.331 129.47C251.331 129.499 251.331 129.509 251.331 129.525C251.331 129.541 251.331 129.616 251.331 129.661C251.331 129.706 251.331 129.696 251.331 129.716C251.329 129.745 251.329 129.774 251.331 129.803C251.329 129.823 251.329 129.842 251.331 129.862C251.329 129.888 251.329 129.916 251.331 129.942V130.001C251.331 130.03 251.331 130.056 251.331 130.082C251.329 130.101 251.329 130.121 251.331 130.14L251.35 130.224C251.35 130.224 251.35 130.26 251.35 130.276L251.38 130.366C251.38 130.366 251.38 130.396 251.396 130.409C251.412 130.422 251.428 130.499 251.448 130.541C251.547 130.758 251.669 130.964 251.811 131.156C251.905 131.286 252.002 131.412 252.099 131.541L252.238 131.736C252.333 131.865 252.418 132 252.494 132.14C252.722 132.574 252.832 133.059 252.815 133.549C252.797 134.038 252.652 134.514 252.394 134.93L252.277 135.108C252.213 135.207 252.168 135.317 252.144 135.432C252.133 135.532 252.144 135.634 252.176 135.729C252.207 135.825 252.26 135.912 252.329 135.986L252.041 136.06C251.804 136.125 251.642 136.177 251.642 136.177C251.446 136.159 251.248 136.159 251.052 136.177C250.78 136.263 250.535 136.419 250.342 136.63C250.342 136.63 249.104 136.779 248.699 136.419C248.294 136.06 246.874 135.937 246.874 135.937C246.874 135.937 246.473 135.154 246.038 134.911C245.604 134.668 244.554 134.218 244.522 133.979C244.431 133.725 244.295 133.49 244.12 133.286C243.906 133.24 243.689 133.214 243.471 133.208L243.403 133.092L242.538 131.6C242.538 131.6 241.452 130.334 240.866 130.214C240.279 130.095 241.692 131.558 241.76 131.626C241.56 131.483 241.311 131.425 241.068 131.465C240.825 131.505 240.608 131.639 240.464 131.839C240.004 132.351 241.225 133.552 241.984 134.215L242.107 134.322C242.112 134.388 242.122 134.454 242.136 134.519C242.476 136.296 244.363 137.834 244.363 137.834C244.363 137.834 244.58 138.828 245.293 139.07C245.86 139.261 248.907 140.64 250.495 140.915C250.362 141.258 250.206 142.055 250.864 143.226C250.864 143.226 251.02 145.304 250.679 145.576C250.339 145.848 250.355 148.858 250.355 148.858C250.355 148.858 249.059 154.099 250.355 155.212C250.438 155.283 250.531 155.34 250.631 155.381C250.631 155.462 250.654 155.546 250.663 155.633C250.722 156.158 250.741 156.701 250.602 156.928C250.278 157.439 250.709 158.825 250.709 158.825C250.709 158.825 249.458 165.904 250.015 168.402C250.367 170.27 250.532 172.167 250.508 174.067C250.508 174.067 250.323 176.265 251.282 177.592C251.388 177.906 251.45 178.232 251.467 178.563C251.53 179.198 251.697 179.818 251.963 180.398C252.18 180.819 252.611 182.599 252.242 183.078C251.872 183.557 252.643 188.804 252.643 188.804C252.643 188.804 252.024 190.423 252.643 191.274L252.663 191.297C252.296 191.292 251.931 191.24 251.577 191.141C250.884 190.908 251.402 191.789 252.225 192.391C251.866 193.206 251.373 194.3 251.208 194.656C250.491 194.779 249.072 194.98 248.239 194.783C247.095 194.514 248.735 196.349 250.281 196.683C251.372 196.886 252.484 196.967 253.593 196.922L254.591 195.822C255.398 195.93 256.213 195.96 257.025 195.912L256.938 196.935H257.524V195.873C257.894 195.838 258.276 195.789 258.672 195.718C258.672 195.718 258.694 194.598 258.623 193.54L258.983 193.572L259.038 192.986L260.312 193.216L261.456 183.829C261.456 183.829 261.582 180.337 261.861 178.378C262.14 176.42 261.271 169.853 261.271 169.853C261.271 169.853 261.209 169.529 261.148 168.92C261.086 168.312 261.148 164.761 261.148 164.761C261.148 164.761 261.611 162.819 261.521 162.654C261.43 162.489 261.55 161.66 261.55 161.66C263.494 157.701 261.103 154.125 260.27 153.063C260.318 153.018 260.347 152.957 260.351 152.892C260.355 152.869 260.355 152.846 260.351 152.824C260.219 152.489 260.063 152.164 259.884 151.853L260.37 151.234C260.539 151.477 260.659 151.658 260.659 151.658C260.659 151.658 261.184 150.483 261.712 150.04C262.24 149.596 264.775 145.372 264.775 145.372C264.775 145.372 265.364 144.978 265.053 144.647C264.742 144.317 264.907 144.359 264.907 144.359ZM257.11 177.673C257.068 177.536 256.992 177.412 256.889 177.313C256.889 177.313 256.798 176.666 256.766 175.834C256.951 176.482 257.139 176.951 257.139 176.951L257.11 177.673ZM258.568 193.07C258.568 193.012 258.568 192.954 258.568 192.899H258.613L258.568 193.07ZM258.951 150.221V150.182C258.944 150.099 258.959 150.016 258.994 149.94C259.029 149.865 259.083 149.8 259.151 149.752C259.187 149.73 259.216 149.699 259.235 149.662C259.253 149.625 259.262 149.583 259.258 149.541C259.243 149.405 259.192 149.276 259.109 149.166C259.171 149.211 259.362 149.315 259.492 148.939C259.511 148.881 259.521 148.82 259.521 148.758C259.49 148.444 259.362 148.148 259.155 147.91L260.555 144.965C260.708 145.01 260.864 145.046 261.022 145.071C260.655 146.204 260.354 147.554 260.354 147.554L259.271 149.933C259.345 149.962 259.409 150.008 259.459 150.069L258.951 150.221Z" fill="url(#paint0_linear)"/>
<path d="M254.293 191.222C254.293 191.222 252.475 191.445 251.59 191.141C250.705 190.837 251.862 192.436 253.058 192.828C253.902 193.075 254.773 193.223 255.651 193.268L257.055 191.947L258.545 192.064L258.286 193.523L258.75 193.566L258.928 191.656L254.293 191.222Z" fill="#444053"/>
<path opacity="0.1" d="M254.293 191.222C254.293 191.222 252.475 191.445 251.59 191.141C250.705 190.837 251.862 192.436 253.058 192.828C253.902 193.075 254.773 193.223 255.651 193.268L257.055 191.947L258.545 192.064L258.286 193.523L258.75 193.566L258.928 191.656L254.293 191.222Z" fill="black"/>
<path d="M251.668 194.559C251.668 194.559 249.484 195.035 248.378 194.766C247.273 194.498 248.858 196.32 250.352 196.647C251.405 196.851 252.479 196.931 253.551 196.886L255.107 195.126L256.928 195.097L256.779 196.899H257.349V194.559H251.668Z" fill="#444053"/>
<path opacity="0.1" d="M251.668 194.559C251.668 194.559 249.484 195.035 248.378 194.766C247.273 194.498 248.858 196.32 250.352 196.647C251.405 196.851 252.479 196.931 253.551 196.886L255.107 195.126L256.928 195.097L256.779 196.899H257.349V194.559H251.668Z" fill="black"/>
<path d="M259.738 153.086C259.738 153.086 263.475 157.235 261.235 161.922C261.235 161.922 261.116 162.761 261.203 162.91C261.291 163.058 260.847 165.001 260.847 165.001C260.847 165.001 260.785 168.522 260.847 169.121C260.908 169.72 260.966 170.043 260.966 170.043C260.966 170.043 261.803 176.553 261.534 178.495C261.265 180.437 261.145 183.9 261.145 183.9L260.039 193.216L254.3 192.141L256.892 179.359L256.983 177.093C256.983 177.093 255.907 174.319 256.384 172.915C256.86 171.51 256.264 153.626 256.264 153.626L259.738 153.086Z" fill="#444053"/>
<path opacity="0.02" d="M259.738 153.086C259.738 153.086 263.475 157.235 261.235 161.922C261.235 161.922 261.116 162.761 261.203 162.91C261.291 163.058 260.847 165.001 260.847 165.001C260.847 165.001 260.785 168.522 260.847 169.121C260.908 169.72 260.966 170.043 260.966 170.043C260.966 170.043 261.803 176.553 261.534 178.495C261.265 180.437 261.145 183.9 261.145 183.9L260.039 193.216L254.3 192.141L256.892 179.359L256.983 177.093C256.983 177.093 255.907 174.319 256.384 172.915C256.86 171.51 256.264 153.626 256.264 153.626L259.738 153.086Z" fill="black"/>
<path d="M256.99 173.151C256.341 174.404 256.75 177.449 256.75 177.449C257.615 178.197 257.139 184.706 257.139 184.706C257.139 184.706 257.735 191.125 258.111 191.873C258.487 192.62 258.435 195.692 258.435 195.692C254.04 196.498 251.169 194.766 251.169 194.766C251.169 194.766 252.575 191.572 252.605 191.423C252.621 191.339 252.809 191.565 252.864 191.633L252.605 191.274C252.005 190.439 252.605 188.827 252.605 188.827C252.605 188.827 251.856 183.648 252.216 183.153C252.575 182.657 252.157 180.913 251.947 180.495C251.689 179.918 251.527 179.302 251.467 178.673C251.45 178.348 251.39 178.027 251.289 177.718C250.362 176.404 250.54 174.225 250.54 174.225C250.565 172.344 250.405 170.464 250.064 168.613C249.526 166.133 250.735 159.116 250.735 159.116C250.735 159.116 250.333 157.744 250.631 157.235C250.767 157.009 250.748 156.471 250.689 155.941C250.618 155.293 250.482 154.691 250.482 154.691L258.646 153.254C258.818 153.539 258.97 153.814 259.119 154.079C261.819 159.061 259.997 160.909 259.997 160.909L258.263 166.224C258.263 166.224 257.648 171.895 256.99 173.151Z" fill="#444053"/>
<path d="M244.061 134.186L242.895 135.157C242.895 135.157 242.664 134.976 242.36 134.701C241.627 134.053 240.448 132.852 240.892 132.347C240.958 132.25 241.044 132.167 241.144 132.103C241.244 132.039 241.356 131.997 241.472 131.977C241.589 131.957 241.709 131.961 241.824 131.989C241.939 132.016 242.047 132.067 242.143 132.137C242.078 132.066 240.723 130.619 241.28 130.735C241.838 130.852 242.901 132.108 242.901 132.108L243.737 133.587L244.061 134.186Z" fill="#EFB7B9"/>
<path d="M259.68 150.312L258.306 150.729L259.349 152.548L260.545 150.998L259.68 150.312Z" fill="#EFB7B9"/>
<path d="M256.452 133.202C258.614 133.202 260.367 131.451 260.367 129.292C260.367 127.132 258.614 125.382 256.452 125.382C254.289 125.382 252.537 127.132 252.537 129.292C252.537 131.451 254.289 133.202 256.452 133.202Z" fill="#EFB7B9"/>
<path d="M254.147 130.719C254.147 130.719 257.712 136.361 254.329 136.84C250.945 137.319 258.866 140.75 258.866 140.75L261.825 137.766C261.825 137.766 258.746 132.451 259.232 130.422C259.719 128.392 254.147 130.719 254.147 130.719Z" fill="#EFB7B9"/>
<path opacity="0.1" d="M259.129 154.079C258.34 154.32 257.535 154.507 256.721 154.639C256.721 154.639 252.313 156.582 250.709 155.934C250.637 155.287 250.501 154.685 250.501 154.685L258.646 153.254C258.827 153.539 258.986 153.814 259.129 154.079Z" fill="black"/>
<path d="M263.183 139.32L262.386 140.967L261.488 142.819L261.359 143.084L260.292 145.385L258.938 148.299C258.938 148.299 259.417 148.865 259.262 149.315C259.106 149.765 258.902 149.551 258.876 149.525C258.899 149.561 259.2 149.949 258.931 150.121C258.852 150.19 258.793 150.279 258.762 150.379C258.73 150.479 258.727 150.586 258.753 150.687C258.753 150.687 259.858 152.51 260.069 153.167C260.279 153.824 256.721 154.39 256.721 154.39C256.721 154.39 251.668 156.63 250.41 155.523C249.153 154.416 250.41 149.224 250.41 149.224C250.41 149.224 250.41 146.24 250.735 145.971C251.059 145.703 250.913 143.641 250.913 143.641C250.047 142.058 250.644 141.161 250.644 141.161L250.404 137.102C250.404 137.102 250.793 136.685 251.091 136.656C251.281 136.636 251.472 136.636 251.661 136.656C251.661 136.656 251.817 136.601 252.047 136.539C252.527 136.403 253.321 136.215 253.603 136.355C254.021 136.565 256.714 136.031 256.714 136.031C257.873 135.861 259.041 135.753 260.211 135.707C260.611 135.684 261.012 135.727 261.397 135.837C261.657 135.895 261.898 136.018 262.098 136.194C262.298 136.37 262.451 136.593 262.542 136.843C262.497 137.329 262.624 137.815 262.901 138.216C263.387 138.993 263.183 139.32 263.183 139.32Z" fill="#FF6484"/>
<path opacity="0.1" d="M244.061 134.186L242.895 135.157C242.895 135.157 242.664 134.976 242.36 134.701C242.266 133.694 243.125 133.561 243.731 133.587L244.061 134.186Z" fill="black"/>
<path d="M250.919 137.083L250.41 137.112C250.41 137.112 249.214 137.261 248.826 136.902C248.437 136.542 247.062 136.426 247.062 136.426C247.062 136.426 246.674 135.649 246.255 135.409C245.837 135.17 244.82 134.723 244.791 134.484C244.704 134.233 244.572 134 244.402 133.798C244.402 133.798 242.159 133.26 242.489 135.021C242.82 136.782 244.641 138.306 244.641 138.306C244.641 138.306 244.852 139.277 245.539 139.53C246.226 139.782 250.679 141.86 251.399 141.323C252.118 140.786 250.919 137.083 250.919 137.083Z" fill="#FF6484"/>
<path opacity="0.1" d="M262.908 138.206C262.631 137.805 262.503 137.319 262.548 136.834C262.457 136.583 262.305 136.36 262.105 136.184C261.905 136.008 261.664 135.885 261.404 135.827C261.215 135.771 261.02 135.733 260.824 135.714C261.08 135.774 261.317 135.897 261.514 136.072C261.711 136.246 261.861 136.467 261.952 136.714C261.905 137.2 262.032 137.686 262.311 138.086C262.788 138.863 262.58 139.193 262.58 139.193L261.783 140.838L260.882 142.696L260.756 142.961L259.689 145.262L258.335 148.176C258.335 148.176 258.811 148.742 258.659 149.192C258.506 149.642 258.302 149.428 258.273 149.402C258.299 149.438 258.597 149.826 258.331 149.998C258.252 150.067 258.193 150.156 258.161 150.256C258.129 150.356 258.125 150.462 258.15 150.564C258.15 150.564 259.258 152.387 259.466 153.044C259.673 153.701 256.118 154.267 256.118 154.267C256.118 154.267 252.608 155.821 250.712 155.701C252.332 156.332 256.717 154.387 256.717 154.387C256.717 154.387 260.283 153.821 260.065 153.163C259.848 152.506 258.75 150.684 258.75 150.684C258.724 150.582 258.727 150.476 258.758 150.376C258.79 150.276 258.849 150.186 258.928 150.118C259.187 149.946 258.895 149.558 258.873 149.522C258.899 149.548 259.119 149.729 259.258 149.312C259.398 148.894 258.934 148.295 258.934 148.295L260.289 145.382L261.355 143.081L261.485 142.815L262.383 140.964L263.18 139.316C263.18 139.316 263.387 138.983 262.908 138.206Z" fill="black"/>
<path d="M262.639 138.873L263.177 139.32C263.274 139.615 263.427 139.89 263.627 140.129C263.925 140.452 264.732 143.709 264.732 143.709C264.698 143.784 264.681 143.866 264.681 143.948C264.681 144.031 264.698 144.112 264.732 144.188C264.852 144.427 264.493 144.787 264.493 144.787C264.493 144.787 264.314 144.725 264.613 145.055C264.911 145.385 264.344 145.771 264.344 145.771C264.344 145.771 261.893 149.949 261.385 150.399C260.876 150.849 260.367 152.018 260.367 152.018C260.367 152.018 259.304 150.347 259.051 150.315L260.098 147.955C260.098 147.955 260.814 144.673 261.352 144.071C261.89 143.469 261.083 141.414 261.083 141.414L262.639 138.873Z" fill="#FF6484"/>
<path opacity="0.1" d="M262.982 144.961C262.535 145.499 261.744 145.609 261.038 145.534C260.934 145.534 260.834 145.508 260.73 145.489C260.578 145.46 260.425 145.424 260.276 145.382C259.742 145.228 259.24 144.982 258.792 144.654C258.698 144.569 258.588 144.504 258.468 144.463C258.325 144.446 258.181 144.473 258.055 144.541C257.928 144.609 257.826 144.714 257.761 144.842C257.609 145.084 257.537 145.369 257.382 145.612C257.212 145.84 256.991 146.025 256.735 146.15C256.48 146.275 256.198 146.337 255.914 146.331C255.344 146.315 254.782 146.205 254.248 146.007C254.725 145.499 255.09 144.895 255.317 144.236C255.415 143.799 255.443 143.349 255.402 142.903C255.272 140.789 254.536 138.562 252.809 137.332C252.511 137.118 252.161 136.866 252.05 136.546C252.53 136.41 253.324 136.222 253.606 136.361C254.024 136.571 256.717 136.037 256.717 136.037C257.877 135.868 259.044 135.76 260.215 135.714C260.614 135.69 261.015 135.734 261.401 135.843C261.207 136.721 261.174 137.627 261.304 138.517C261.426 139.066 261.625 139.595 261.893 140.09C262.049 140.384 262.217 140.679 262.376 140.974C262.833 141.789 263.268 142.608 263.349 143.527C263.418 144.035 263.286 144.549 262.982 144.961Z" fill="black"/>
<path opacity="0.1" d="M257.071 149.169C257.299 149.109 257.536 149.088 257.771 149.108C257.967 149.166 258.147 149.27 258.296 149.412H256.76C256.364 149.412 255.768 149.435 255.463 149.156C255.729 148.888 256.682 149.215 257.071 149.169Z" fill="black"/>
<path d="M251.746 128.832C251.512 129.153 251.365 129.527 251.319 129.921C251.272 130.314 251.328 130.713 251.48 131.079C251.726 131.658 252.199 132.108 252.491 132.665C252.711 133.097 252.817 133.577 252.8 134.061C252.783 134.545 252.643 135.017 252.394 135.432C252.28 135.579 252.199 135.747 252.154 135.927C252.083 136.384 252.556 136.711 252.932 136.976C254.656 138.206 255.392 140.433 255.525 142.547C255.569 142.993 255.542 143.443 255.444 143.88C255.217 144.539 254.852 145.143 254.374 145.651C254.908 145.848 255.471 145.957 256.04 145.974C256.325 145.979 256.606 145.916 256.861 145.791C257.117 145.665 257.338 145.481 257.508 145.253C257.664 145.013 257.735 144.728 257.887 144.482C257.952 144.354 258.054 144.249 258.181 144.181C258.307 144.113 258.452 144.086 258.594 144.104C258.713 144.146 258.824 144.21 258.918 144.295C259.577 144.779 260.351 145.082 261.164 145.175C261.861 145.256 262.652 145.139 263.109 144.602C263.414 144.186 263.545 143.669 263.475 143.158C263.319 141.349 261.786 139.922 261.433 138.148C261.145 136.707 261.663 135.235 261.757 133.772C261.9 131.603 261.109 129.489 260.334 127.46C260.163 126.957 259.934 126.474 259.654 126.023C259.311 125.561 258.874 125.177 258.371 124.898C257.868 124.619 257.311 124.45 256.737 124.404C256.313 124.348 255.881 124.391 255.476 124.53C255.076 124.713 254.71 124.963 254.394 125.268C253.655 125.916 252.893 126.563 252.449 127.463C252.274 127.826 252.161 128.214 251.966 128.564" fill="#925978"/>
<g opacity="0.1">
<path opacity="0.1" d="M252.452 128.042C252.643 127.69 252.776 127.301 252.932 126.942C253.1 126.606 253.309 126.291 253.554 126.006C253.107 126.421 252.735 126.909 252.456 127.45C252.287 127.803 252.174 128.178 251.989 128.521L252.225 128.321C252.165 128.404 252.11 128.49 252.06 128.58C252.212 128.417 252.343 128.237 252.452 128.042Z" fill="black"/>
<path opacity="0.1" d="M261.647 144.67C260.834 144.575 260.06 144.271 259.401 143.786C259.305 143.704 259.195 143.64 259.077 143.595C258.934 143.58 258.79 143.609 258.664 143.677C258.538 143.745 258.436 143.85 258.37 143.977C258.339 144.028 258.311 144.081 258.286 144.136C258.388 144.09 258.502 144.08 258.61 144.107C258.73 144.149 258.84 144.214 258.934 144.298C259.593 144.782 260.368 145.085 261.18 145.178C261.877 145.259 262.668 145.143 263.125 144.605C263.182 144.536 263.232 144.461 263.274 144.382C262.78 144.659 262.206 144.761 261.647 144.67Z" fill="black"/>
<path opacity="0.1" d="M256.51 145.466C255.942 145.449 255.38 145.34 254.847 145.143C255.324 144.633 255.687 144.028 255.914 143.369C256.013 142.933 256.041 142.484 255.998 142.038C255.868 139.925 255.136 137.695 253.405 136.468C253.029 136.199 252.559 135.872 252.627 135.416C252.676 135.237 252.758 135.069 252.87 134.921C253.119 134.506 253.259 134.035 253.276 133.551C253.293 133.068 253.187 132.588 252.968 132.156C252.676 131.6 252.203 131.147 251.953 130.57C251.822 130.252 251.764 129.908 251.782 129.563C251.799 129.219 251.893 128.883 252.057 128.58C251.974 128.667 251.886 128.749 251.794 128.826C251.727 128.918 251.655 129.007 251.577 129.091C251.414 129.394 251.32 129.73 251.302 130.074C251.285 130.417 251.344 130.761 251.477 131.079C251.723 131.658 252.196 132.108 252.488 132.665C252.707 133.097 252.813 133.577 252.796 134.061C252.779 134.545 252.64 135.017 252.391 135.432C252.277 135.579 252.195 135.747 252.151 135.927C252.08 136.384 252.553 136.711 252.929 136.976C254.653 138.206 255.389 140.433 255.522 142.547C255.566 142.993 255.539 143.443 255.44 143.88C255.214 144.539 254.849 145.143 254.371 145.651C254.905 145.848 255.468 145.957 256.037 145.974C256.321 145.979 256.603 145.916 256.858 145.791C257.114 145.665 257.335 145.481 257.505 145.253C257.524 145.22 257.544 145.188 257.56 145.156C257.245 145.353 256.882 145.46 256.51 145.466Z" fill="black"/>
</g>
<path d="M23.0242 184.036C22.352 183.949 21.7077 183.713 21.1379 183.347L21.0796 183.305C21.1263 183.237 21.1594 183.162 21.1768 183.081C21.0967 182.927 21.0545 182.757 21.0536 182.583C21.0561 182.418 21.0229 182.255 20.9564 182.104V181.295C20.7646 181.024 20.6688 180.697 20.6842 180.366C20.6615 179.696 20.6355 176.407 20.6355 176.407C20.598 176.235 20.5903 176.058 20.6129 175.883C20.6355 175.501 20.6355 175.358 20.6355 175.358C20.5555 175.137 20.5311 174.899 20.5642 174.666C20.585 174.445 20.5226 174.225 20.3892 174.047L20.7587 172.235C20.7587 172.235 20.9629 165.981 20.3665 164.094C20.3665 164.094 20.3665 164.094 20.3665 164.072C20.4152 162.858 19.6762 160.835 20.0943 159.423C20.5124 158.012 20.5642 157.708 20.5642 157.708C20.5642 157.708 18.7169 153.083 18.2502 151.985C17.9817 151.274 17.6566 150.586 17.2779 149.927C17.2476 149.886 17.2184 149.847 17.1903 149.81L17.1417 149.752C17.2433 149.585 17.3044 149.396 17.32 149.202C17.3459 148.878 17.2973 148.47 17.5469 148.231C17.6419 148.153 17.7439 148.085 17.8515 148.027C18.0415 147.902 18.1927 147.727 18.2878 147.521C18.383 147.315 18.4182 147.086 18.3895 146.861C18.3171 146.506 18.1477 146.178 17.9001 145.913C17.9274 145.755 17.9415 145.594 17.9423 145.434C17.9415 145.07 17.8661 144.709 17.7206 144.375C17.5751 144.041 17.3627 143.741 17.0964 143.492V143.343C17.1001 143.013 16.9966 142.69 16.8014 142.424L16.8695 142.472L16.7528 142.372C16.6964 142.314 16.632 142.263 16.5616 142.223C16.0132 141.849 15.3723 141.633 14.7091 141.599C14.0459 141.565 13.3861 141.713 12.802 142.029C12.5094 142.183 12.2582 142.405 12.0695 142.676C11.6839 143.272 11.7811 144.039 11.5802 144.715C11.3792 145.392 10.932 145.89 10.5528 146.454C10.1736 147.017 9.85918 147.684 10.0018 148.341C10.1055 148.82 10.4426 149.247 10.4361 149.732C10.4202 149.99 10.3141 150.233 10.1363 150.421C9.95845 150.608 9.72036 150.726 9.46377 150.755H9.31793C9.79991 151.047 10.3441 151.22 10.906 151.26C10.906 151.306 10.8801 151.348 10.8704 151.393C10.4296 153.102 10.0245 155.277 10.0245 155.277C10.0245 155.277 10.2967 157.472 9.72954 159.187C9.16236 160.903 9.2369 164.434 9.2369 164.434C9.2369 164.434 10.812 163.622 10.9125 164.146C11.013 164.67 10.9125 164.813 10.9125 164.813C11.1401 164.933 11.3738 165.041 11.6126 165.136V165.347L11.5413 166.286C11.5161 166.48 11.5464 166.677 11.6288 166.855C11.7649 167.117 11.6288 167.826 11.6288 167.826C11.6288 167.826 11.5121 167.897 11.6288 168.234C11.6806 168.507 11.6489 168.789 11.538 169.043C11.538 169.043 11.3987 170.83 11.3727 171.212C11.2585 171.712 11.0934 172.199 10.8801 172.665C10.8801 172.665 11.3014 173.19 10.8801 173.264C10.4588 173.339 10.4134 173.976 10.4134 173.976C10.4134 173.976 9.92076 174.384 9.92076 174.527C8.4321 176.18 7.46581 178.237 7.14321 180.437C7.14321 180.437 6.62464 180.913 6.69919 181.366C6.74132 181.622 6.65705 181.709 6.57603 181.738C6.66678 181.738 6.76725 181.809 6.72187 182.033C6.65057 182.415 6.45287 183.224 6.45287 183.224H6.48852C6.0834 183.69 5.49677 184.47 5.40602 185.166V185.25L5.17915 185.745L7.12376 186.603L7.29553 186.341C7.29553 186.341 8.15764 187.312 9.14291 187.532C9.31221 187.569 9.48491 187.589 9.65823 187.59C10.207 187.579 10.7492 187.469 11.2593 187.267C11.2593 187.267 11.9723 186.386 10.1249 186.218C10.1249 186.218 9.04244 184.978 9.15263 184.454C9.18735 184.233 9.21007 184.01 9.2207 183.787C9.2207 183.739 9.2207 183.69 9.2207 183.645L9.3471 183.664L9.36978 183.263C9.39754 183.23 9.41843 183.192 9.43123 183.15C9.44403 183.109 9.44848 183.066 9.44433 183.023C9.44433 182.858 9.29524 182.832 9.44433 182.738C9.59341 182.644 9.59017 182.738 9.59017 182.502C9.59017 182.266 9.49294 182.334 9.71333 182.094C9.93372 181.855 9.69064 181.427 9.69064 181.427C9.82702 181.326 9.94048 181.196 10.0237 181.048C10.1069 180.9 10.1579 180.736 10.1736 180.566C10.1509 180.068 11.8232 176.896 12.1668 176.776C12.5103 176.656 12.5363 176.035 12.5363 176.035C12.5363 176.035 13.0062 176.132 13.152 176.035C13.3832 175.776 13.5894 175.497 13.7678 175.2C13.7678 175.2 15.6379 170.48 15.6638 168.694L15.787 168.289C15.787 168.289 16.5 169.218 16.3995 169.885C16.2991 170.552 16.9473 171.031 16.9473 171.031V173.057C17.0185 173.41 17.0576 173.768 17.0639 174.128C17.0413 174.452 17.3556 174.795 17.2357 175.083C17.171 175.341 17.171 175.612 17.2357 175.87C17.2357 175.87 17.2098 176.537 17.2357 176.728C17.2617 176.919 17.1385 179.11 17.7802 180.065C17.7802 180.065 18.0492 180.754 17.7802 181.207C17.5112 181.66 18.0233 182.114 18.0233 182.114C18.0233 182.114 17.6992 182.638 18.0233 183.02C18.208 183.261 18.2906 183.564 18.2534 183.865C18.1238 184.35 18.0298 184.985 18.2534 185.428L18.3117 186.111L20.198 185.965V185.587C21.0107 185.786 21.8526 185.839 22.6839 185.742C23.0051 185.713 23.317 185.619 23.6002 185.464C23.8835 185.31 24.1319 185.1 24.3303 184.846C24.3303 184.846 25.0887 183.535 23.0242 184.036Z" fill="url(#paint1_linear)"/>
<path d="M23.977 184.858C23.7865 185.109 23.5457 185.318 23.27 185.47C22.9944 185.623 22.6899 185.717 22.3759 185.745C21.5725 185.842 20.7581 185.788 19.9744 185.587V185.969L18.1529 186.111L18.0978 185.431C17.8871 184.985 17.9844 184.337 18.114 183.852C18.1728 183.623 18.2475 183.398 18.3376 183.179C18.3376 183.179 19.9063 181.848 20.4281 182.855C20.5415 183.061 20.6986 183.24 20.8883 183.379C21.4358 183.742 22.0585 183.977 22.7098 184.065C24.7127 183.554 23.977 184.858 23.977 184.858Z" fill="#FF6484"/>
<path opacity="0.1" d="M19.1349 183.554C19.1349 183.554 19.1349 184.787 20.0359 184.765C20.937 184.742 21.0601 184.273 20.7749 183.955C20.5804 183.731 20.4129 183.484 20.2758 183.221L19.1349 183.554Z" fill="black"/>
<path d="M11.3565 187.28C10.8664 187.481 10.3435 187.591 9.8138 187.603C9.64602 187.601 9.47885 187.583 9.31468 187.548C8.36506 187.335 7.53212 186.36 7.53212 186.36L7.36683 186.623L5.48705 185.768L5.70095 185.27V185.182C5.78846 184.502 6.34915 183.722 6.74456 183.259C6.96819 183.001 7.1432 182.832 7.1432 182.832L9.41191 183.156C9.41191 183.156 9.41191 183.447 9.41191 183.803C9.40395 184.027 9.3823 184.249 9.34709 184.47C9.2531 184.991 10.2967 186.224 10.2967 186.224C12.0469 186.393 11.3565 187.28 11.3565 187.28Z" fill="#FF6484"/>
<path d="M6.84211 181.764C6.80379 181.774 6.76341 181.774 6.7251 181.764C6.76378 181.757 6.80342 181.757 6.84211 181.764Z" fill="#444053"/>
<path opacity="0.1" d="M9.38597 183.175C9.38597 183.175 9.38597 183.467 9.38597 183.823L6.73158 183.399C6.73158 183.399 6.73158 183.347 6.76075 183.263C6.96818 183.001 7.14319 182.832 7.14319 182.832L9.38597 183.175Z" fill="black"/>
<path opacity="0.1" d="M20.8948 183.366C20.4929 184.295 18.1043 184.075 18.1043 184.075C18.1178 184 18.1232 183.924 18.1205 183.849C18.1793 183.619 18.254 183.394 18.3441 183.175C18.3441 183.175 19.9128 181.845 20.4346 182.852C20.5492 183.054 20.7062 183.23 20.8948 183.366Z" fill="black"/>
<path d="M20.9337 183.104C20.6971 184.169 18.1043 183.933 18.1043 183.933C18.1551 183.616 18.0781 183.293 17.8904 183.033C17.5663 182.651 17.8904 182.13 17.8904 182.13C17.8904 182.13 17.3913 181.68 17.6538 181.227C17.9163 180.774 17.6538 180.087 17.6538 180.087C17.038 179.139 17.1547 176.954 17.1288 176.766C17.1028 176.579 17.1288 175.912 17.1288 175.912C17.0658 175.655 17.0658 175.386 17.1288 175.129C17.2454 174.844 16.9408 174.51 16.9667 174.18C16.9635 173.825 16.9299 173.471 16.8662 173.122V171.105C16.6934 170.972 16.5553 170.798 16.4639 170.6C16.3725 170.401 16.3304 170.184 16.3412 169.966C16.4352 169.299 15.7449 168.377 15.7449 168.377L15.6282 168.778C15.6023 170.558 13.797 175.252 13.797 175.252C13.625 175.545 13.4265 175.823 13.2039 176.08C13.0613 176.177 12.6108 176.08 12.6108 176.08C12.6108 176.08 12.5849 176.698 12.2543 176.815C11.9237 176.931 10.3097 180.091 10.3291 180.589C10.3163 180.761 10.2673 180.928 10.1852 181.08C10.1031 181.232 9.98975 181.365 9.85269 181.469C9.85269 181.469 10.0893 181.897 9.87538 182.133C9.66147 182.369 9.7587 182.298 9.7587 182.538C9.7587 182.777 9.7587 182.68 9.6161 182.774C9.47349 182.868 9.6161 182.894 9.6161 183.059C9.6225 183.144 9.59709 183.228 9.5448 183.295L9.52211 183.693L6.74132 183.25C6.74132 183.25 6.9293 182.441 7.0006 182.062C7.04273 181.839 6.9455 181.78 6.85799 181.767C6.93578 181.738 7.0168 181.651 6.97791 181.398C6.90661 180.945 7.40572 180.473 7.40572 180.473C7.69339 178.289 8.60991 176.236 10.0439 174.562C10.0439 174.42 10.5171 174.015 10.5171 174.015C10.5171 174.015 10.5657 173.368 10.9708 173.303C11.376 173.238 10.9708 172.711 10.9708 172.711C11.1754 172.245 11.3339 171.76 11.444 171.264C11.47 170.885 11.6028 169.105 11.6028 169.105C11.7101 168.85 11.7405 168.57 11.6903 168.299C11.5802 167.975 11.6903 167.894 11.6903 167.894C11.6903 167.894 11.8265 167.182 11.6903 166.923C11.6118 166.744 11.5838 166.547 11.6093 166.354L11.6741 165.421L11.7746 164.029C11.7746 164.029 19.1641 162.77 19.9711 163.79C20.0606 163.916 20.1254 164.058 20.1624 164.208C20.7393 166.085 20.5416 172.3 20.5416 172.3L20.185 174.103C20.3153 174.28 20.3754 174.499 20.3536 174.717C20.3223 174.95 20.3468 175.186 20.4249 175.407C20.4249 175.407 20.4249 175.549 20.399 175.928C20.3782 176.103 20.387 176.28 20.4249 176.452C20.4249 176.452 20.4476 179.725 20.4703 180.392C20.4556 180.72 20.5477 181.045 20.7328 181.317V182.123C20.797 182.274 20.829 182.436 20.8268 182.599C20.8224 182.774 20.8591 182.946 20.9337 183.104Z" fill="#444053"/>
<path opacity="0.1" d="M9.8138 187.597C9.64602 187.595 9.47885 187.576 9.31468 187.542C8.36506 187.328 7.53212 186.354 7.53212 186.354L7.36683 186.616L5.48705 185.762L5.70095 185.263V185.176L7.64556 186.147C7.64556 186.147 9.20125 186.901 9.8138 187.597Z" fill="black"/>
<path opacity="0.1" d="M22.376 185.745C21.5725 185.842 20.7581 185.788 19.9744 185.587V185.969L18.1529 186.111L18.0978 185.431C18.6747 185.431 19.6049 185.454 20.0068 185.431C20.8071 185.429 21.6041 185.534 22.376 185.745Z" fill="black"/>
<path opacity="0.1" d="M7.77195 181.152C7.86628 181.146 7.96092 181.158 8.05067 181.188C8.14387 181.245 8.2327 181.309 8.31644 181.379C8.37895 181.413 8.43857 181.452 8.49469 181.495C8.56275 181.563 8.59192 181.664 8.65998 181.732C8.78962 181.858 8.98408 181.832 9.16558 181.89C9.18502 181.89 9.20447 181.89 9.20771 181.926C9.20787 181.936 9.20519 181.945 9.2 181.953C9.19481 181.961 9.18734 181.967 9.17854 181.971C9.13636 181.994 9.08897 182.007 9.0408 182.007C8.99263 182.007 8.94524 181.994 8.90306 181.971C8.81988 181.923 8.74357 181.865 8.67619 181.796C8.54426 181.679 8.3929 181.586 8.22893 181.521C8.0053 181.431 7.61637 181.408 7.47377 181.198C7.56821 181.159 7.67037 181.144 7.77195 181.152Z" fill="black"/>
<path opacity="0.1" d="M7.58073 181.651C7.63028 181.665 7.67811 181.684 7.72333 181.709L7.96641 181.832C7.79395 181.844 7.62177 181.806 7.47053 181.722C7.41557 181.702 7.36244 181.677 7.31172 181.648C7.40085 181.632 7.49199 181.633 7.58073 181.651Z" fill="black"/>
<path opacity="0.1" d="M7.90484 182.068C7.95649 182.062 8.00876 182.062 8.06041 182.068C8.15366 182.102 8.23948 182.154 8.3132 182.22C8.49167 182.363 8.71367 182.439 8.94196 182.437C8.89925 182.456 8.8524 182.464 8.80584 182.46H8.29376C8.23787 182.468 8.18111 182.468 8.12522 182.46C8.05178 182.444 7.9809 182.418 7.91456 182.382C7.82705 182.343 7.4673 182.24 7.46406 182.12C7.46082 182 7.81733 182.068 7.90484 182.068Z" fill="black"/>
<path opacity="0.1" d="M19.5271 182.674C19.6835 182.687 19.8407 182.687 19.9971 182.674C20.1633 182.667 20.3247 182.616 20.4638 182.525C20.5999 182.421 20.5707 182.311 20.3989 182.305C20.2364 182.311 20.0766 182.35 19.929 182.418C19.8527 182.45 19.779 182.488 19.7086 182.531C19.6762 182.564 19.5595 182.677 19.5271 182.674Z" fill="black"/>
<path opacity="0.1" d="M20.1073 182.933C20.1073 182.991 20.0327 183.023 19.9776 183.043C19.8438 183.095 19.7028 183.126 19.5595 183.136C19.5239 183.136 19.4234 183.136 19.4364 183.081C19.4493 183.026 19.5984 183.043 19.6341 183.036C19.7941 183.013 19.9522 182.978 20.1073 182.933Z" fill="black"/>
<path opacity="0.1" d="M12.1441 173.513C11.9061 173.347 11.6242 173.255 11.3338 173.248C11.6279 173.23 11.9177 173.325 12.1441 173.513Z" fill="black"/>
<path opacity="0.1" d="M11.9237 172.555C12.1375 172.557 12.3469 172.616 12.5298 172.727L12.3288 172.669C12.196 172.626 12.0591 172.598 11.9204 172.584C11.8427 172.584 11.7616 172.584 11.6839 172.584C11.6061 172.584 11.5024 172.562 11.4116 172.559C11.5704 172.559 11.7487 172.549 11.9237 172.555Z" fill="black"/>
<path opacity="0.1" d="M12.6529 173.012C12.721 173.012 12.802 173.054 12.815 173.122C12.6453 173.041 12.4685 172.976 12.2867 172.928C12.1862 172.895 11.8783 172.759 11.807 172.853C12.0631 172.927 12.358 172.953 12.6529 173.012Z" fill="black"/>
<path opacity="0.1" d="M13.3011 170.904C13.6124 170.799 13.893 170.619 14.1178 170.38C14.1152 170.487 14.0863 170.591 14.0337 170.683C13.9811 170.776 13.9065 170.854 13.8164 170.911C13.6344 171.024 13.4317 171.1 13.2201 171.134C13.0092 171.171 12.8036 171.233 12.6075 171.319C12.5135 171.364 12.2219 171.642 12.1279 171.642C12.0339 171.642 12.1992 171.439 12.2413 171.406C12.5683 171.188 12.9253 171.019 13.3011 170.904Z" fill="black"/>
<path opacity="0.1" d="M19.1349 173.983C19.0345 173.947 17.8061 174.183 17.8807 173.947C17.9293 173.801 18.3279 173.857 18.4252 173.86C18.6664 173.866 18.9055 173.908 19.1349 173.983Z" fill="black"/>
<path d="M17.7964 145.609C17.7964 145.808 17.7747 146.007 17.7316 146.201C17.5808 146.878 17.176 147.472 16.6005 147.86C16.025 148.248 15.3225 148.401 14.6373 148.288C13.9522 148.175 13.3364 147.804 12.9167 147.251C12.497 146.699 12.3051 146.007 12.3806 145.317C12.456 144.628 12.793 143.993 13.3224 143.544C13.8517 143.095 14.5331 142.866 15.2266 142.903C15.92 142.941 16.5728 143.242 17.0508 143.745C17.5288 144.248 17.7956 144.915 17.7964 145.609Z" fill="#FBBEBE"/>
<path d="M16.4903 146.722C16.4903 146.722 15.612 149.286 16.1111 149.807C16.6102 150.328 12.5233 150.639 12.5233 150.639C12.5233 150.639 14.2313 147.577 14.066 146.816C13.9007 146.055 16.4903 146.722 16.4903 146.722Z" stroke="#2871FF" stroke-miterlimit="10"/>
<path opacity="0.1" d="M20.1494 164.201C20.1527 164.26 20.1527 164.32 20.1494 164.379C20.1008 165.59 17.939 168.033 17.4399 167.616C16.9408 167.198 13.5507 166.405 13.5507 166.405C13.5507 166.405 13.0516 165.622 12.5298 165.622C12.2321 165.597 11.9407 165.523 11.6677 165.402L11.7681 164.01C11.7681 164.01 19.1576 162.751 19.9647 163.771C20.0533 163.901 20.116 164.047 20.1494 164.201Z" fill="black"/>
<path d="M20.1494 164.165C20.1267 164.771 19.5725 165.687 18.9599 166.399C18.3474 167.111 17.6895 167.616 17.4399 167.415C17.2569 167.296 17.0584 167.202 16.85 167.137C15.7254 166.726 13.5442 166.205 13.5442 166.205C13.5442 166.205 13.0451 165.421 12.5233 165.421C12.0015 165.421 11 164.9 11 164.9C11 164.9 11.0972 164.758 11 164.237C10.9028 163.715 9.37951 164.521 9.37951 164.521C9.37951 164.521 9.3082 161.01 9.85269 159.3C10.3972 157.591 10.1379 155.416 10.1379 155.416C10.1379 155.416 10.5301 153.267 10.9546 151.564C11.2107 150.545 11.4797 149.687 11.6839 149.554C12.2316 149.198 15.0804 149.554 15.0804 149.554C15.6299 149.562 16.178 149.609 16.7204 149.697C16.8606 149.753 16.9804 149.85 17.0639 149.975L17.1482 150.095C17.5217 150.75 17.8394 151.435 18.0978 152.144C18.5516 153.235 20.3341 157.837 20.3341 157.837C20.3341 157.837 20.2855 158.161 19.8804 159.546C19.4753 160.932 20.198 162.955 20.1494 164.165Z" fill="#65617D"/>
<path d="M18.1076 165.564L18.9599 166.399C18.9599 166.399 19.7443 169.102 18.7233 168.862C17.7024 168.623 16.85 167.137 16.85 167.137L18.1076 165.564Z" fill="#FBBEBE"/>
<path opacity="0.1" d="M20.2693 158.041C18.2469 158.019 17.7251 155.193 17.7251 155.193C17.7251 155.193 17.5825 152.393 17.32 151.872C17.1637 151.362 17.0839 150.832 17.0834 150.299C17.4569 150.954 17.7745 151.639 18.033 152.348C18.4867 153.439 20.2693 158.041 20.2693 158.041Z" fill="black"/>
<path d="M20.3406 157.828C18.3182 157.805 17.7964 154.979 17.7964 154.979C17.7964 154.979 17.6538 152.179 17.3913 151.658C17.235 151.149 17.1552 150.618 17.1547 150.085C17.5282 150.74 17.8458 151.426 18.1043 152.134C18.558 153.225 20.3406 157.828 20.3406 157.828Z" fill="#65617D"/>
<path opacity="0.1" d="M16.7204 150.862C16.7204 150.862 16.1273 149.244 15.155 150.862C14.5414 151.986 14.1996 153.237 14.1568 154.516L13.9882 158.977C14.1441 159.264 14.2452 159.578 14.2864 159.903C14.2864 160.226 14.8698 161.197 14.8698 161.197C14.8698 161.197 15.0124 163.071 15.5569 163.382L16.0819 164.923C16.0819 164.923 16.1046 165.942 16.4611 166.347C16.565 166.494 16.6342 166.663 16.6634 166.841C16.6926 167.018 16.6811 167.201 16.6296 167.373L18.7428 166.635C18.7428 166.635 18.503 166.723 18.7428 166.085C18.9826 165.447 18.6002 164.615 18.6002 164.615C18.6002 164.615 17.2454 161.673 17.0769 161.246C16.9084 160.819 16.675 160.32 16.7528 159.822C16.8306 159.323 16.7722 154.031 16.8954 153.225C17.0186 152.419 16.7204 150.862 16.7204 150.862Z" fill="black"/>
<path d="M16.9408 150.639C16.9408 150.639 16.3477 149.02 15.3721 150.639C14.7603 151.763 14.4186 153.014 14.3739 154.293L14.2086 158.753C14.3635 159.041 14.4645 159.355 14.5068 159.679C14.5068 160.003 15.0869 160.974 15.0869 160.974C15.0869 160.974 15.2295 162.848 15.7773 163.156L16.2991 164.7C16.2991 164.7 16.325 165.719 16.6815 166.124C16.7854 166.271 16.8546 166.44 16.8838 166.617C16.913 166.795 16.9014 166.977 16.85 167.15L18.9599 166.412C18.9599 166.412 18.7233 166.499 18.9599 165.858C19.1965 165.217 18.8108 164.382 18.8108 164.382C18.8108 164.382 17.4593 161.44 17.2908 161.013C17.1223 160.586 16.8889 160.087 16.9667 159.589C17.0445 159.09 16.9862 153.798 17.1061 152.989C17.226 152.179 16.9408 150.639 16.9408 150.639Z" fill="#FF6484"/>
<path opacity="0.1" d="M16.9829 164.593C17.073 164.604 17.1606 164.63 17.2422 164.67C17.307 164.703 17.3621 164.755 17.4269 164.79C17.5009 164.833 17.5847 164.855 17.67 164.855C17.575 164.86 17.4798 164.86 17.3848 164.855C17.3255 164.859 17.2661 164.851 17.2098 164.832C17.1564 164.807 17.1064 164.776 17.0607 164.738C17.0025 164.695 16.9394 164.66 16.8727 164.632C16.8209 164.612 16.7658 164.606 16.7463 164.554C16.8261 164.56 16.9052 164.573 16.9829 164.593Z" fill="black"/>
<path opacity="0.1" d="M17.7867 165.23C17.8774 165.23 17.9649 165.211 18.0557 165.204C18.1867 165.2 18.3179 165.206 18.4479 165.224C18.2571 165.321 18.0415 165.36 17.8288 165.334C17.7683 165.318 17.7046 165.318 17.6441 165.334C17.5793 165.36 17.3848 165.58 17.3686 165.386C17.3524 165.191 17.6765 165.234 17.7867 165.23Z" fill="black"/>
<path opacity="0.1" d="M16.6945 142.76L16.3477 142.508C16.385 142.52 16.4209 142.536 16.4546 142.556C16.5276 142.596 16.5933 142.647 16.6491 142.708L16.7593 142.809L16.6945 142.76Z" fill="black"/>
<path opacity="0.1" d="M17.0704 149.965C17.0074 150.108 16.9065 150.23 16.7787 150.318C16.7022 150.37 16.6145 150.404 16.5227 150.415C16.3939 150.428 16.2639 150.415 16.1402 150.377C15.9821 150.334 15.8263 150.283 15.6735 150.224C15.3742 150.099 15.068 149.991 14.7563 149.901C14.5232 149.83 14.276 149.818 14.0371 149.867C13.7983 149.915 13.5754 150.023 13.3886 150.179C13.0872 150.483 13.0159 150.956 12.7177 151.26C12.3158 151.668 11.6612 151.642 11.0972 151.561L10.9643 151.542C11.2204 150.522 11.4894 149.664 11.6936 149.532C12.2413 149.176 15.0901 149.532 15.0901 149.532C15.6396 149.539 16.1877 149.587 16.7301 149.674C16.8709 149.734 16.9897 149.836 17.0704 149.965Z" fill="black"/>
<path opacity="0.1" d="M12.3807 145.609C12.3786 145.076 12.5344 144.554 12.8284 144.109C13.1223 143.665 13.5414 143.317 14.0329 143.109C14.5244 142.901 15.0664 142.844 15.5907 142.943C16.115 143.042 16.5983 143.294 16.9797 143.667C16.9797 144.136 16.8857 144.638 17.0186 145.075C17.1826 145.488 17.4247 145.866 17.7316 146.188C17.5838 146.835 17.2033 147.405 16.6625 147.789C16.1217 148.174 15.4582 148.348 14.798 148.276C14.1378 148.205 13.5269 147.893 13.0812 147.402C12.6356 146.91 12.3863 146.272 12.3807 145.609Z" fill="black"/>
<path d="M16.7593 142.666C16.2338 142.19 15.5716 141.891 14.8664 141.812C14.1613 141.733 13.4492 141.878 12.8312 142.226C12.547 142.382 12.3046 142.604 12.1246 142.874C11.7519 143.466 11.8459 144.233 11.6514 144.903C11.457 145.573 11.0259 146.075 10.6597 146.635C10.2935 147.195 9.9888 147.858 10.1282 148.512C10.2286 148.988 10.556 149.415 10.5495 149.901C10.5365 150.171 10.4219 150.427 10.2284 150.616C10.0349 150.806 9.77687 150.916 9.50589 150.924C9.9864 151.219 10.5312 151.395 11.094 151.435C11.6612 151.516 12.3158 151.542 12.7145 151.134C13.0127 150.83 13.084 150.357 13.3854 150.053C13.5722 149.897 13.7951 149.789 14.0339 149.741C14.2727 149.692 14.5199 149.704 14.7531 149.775C15.2263 149.885 15.6638 150.098 16.137 150.237C16.2606 150.276 16.3906 150.289 16.5194 150.276C16.9246 150.221 17.1676 149.771 17.1936 149.363C17.2195 149.04 17.1709 148.635 17.4107 148.392C17.5024 148.315 17.6011 148.247 17.7057 148.188C17.8911 148.061 18.0378 147.886 18.1299 147.681C18.2219 147.476 18.2557 147.249 18.2275 147.026C18.114 146.224 17.2552 145.732 17.0153 144.942C16.8824 144.489 16.9829 144.003 16.9764 143.534C16.9699 143.065 16.7884 142.524 16.3444 142.365" fill="#444053"/>
<path opacity="0.1" d="M18.1853 147.026C18.0751 146.224 17.213 145.732 16.9732 144.942C16.8403 144.489 16.944 144.003 16.9343 143.534C16.9404 143.206 16.8404 142.885 16.6491 142.618L16.7171 142.666C16.6815 142.631 16.6426 142.598 16.6037 142.566C16.5489 142.509 16.4868 142.459 16.419 142.417L16.2958 142.333L16.3606 142.395L16.2926 142.346C16.4843 142.613 16.5844 142.934 16.5778 143.262C16.5778 143.731 16.4838 144.233 16.6167 144.667C16.8468 145.447 17.7186 145.962 17.8288 146.755C17.8567 146.977 17.8227 147.204 17.7307 147.408C17.6387 147.613 17.4922 147.789 17.307 147.917C17.2025 147.975 17.1038 148.043 17.0121 148.12C16.7722 148.36 16.8209 148.768 16.7949 149.092C16.7625 149.499 16.5292 149.949 16.124 150.004C15.9942 150.016 15.8633 150.003 15.7384 149.965C15.2684 149.842 14.8276 149.613 14.3544 149.503C14.1213 149.431 13.874 149.419 13.6351 149.468C13.3962 149.516 13.1732 149.624 12.9867 149.781C12.6886 150.082 12.614 150.558 12.3159 150.862C11.914 151.267 11.2593 151.244 10.6953 151.163C10.3241 151.121 9.95881 151.038 9.60636 150.914C9.55895 150.919 9.51117 150.919 9.46376 150.914C9.94464 151.209 10.4892 151.384 11.0519 151.425C11.619 151.506 12.2737 151.532 12.6724 151.124C12.9705 150.82 13.0451 150.347 13.3433 150.043C13.53 149.887 13.753 149.779 13.9918 149.731C14.2306 149.682 14.4778 149.694 14.711 149.765C15.1841 149.875 15.6249 150.088 16.0949 150.228C16.2195 150.266 16.3507 150.28 16.4806 150.266C16.8857 150.211 17.1288 149.762 17.1514 149.354C17.1774 149.03 17.1288 148.625 17.3686 148.383C17.4603 148.306 17.559 148.237 17.6635 148.179C17.8473 148.052 17.9931 147.878 18.0851 147.675C18.177 147.472 18.2117 147.248 18.1853 147.026Z" fill="black"/>
<path opacity="0.1" d="M28.6149 185.684C29.1335 187.409 22.162 188.526 13.9526 188.209C6.59222 187.927 0.819971 186.574 0.395399 185.16C-0.0291743 183.745 4.98792 182.593 12.2607 182.57C20.373 182.57 28.0963 183.959 28.6149 185.684Z" fill="#2871FF"/>
</g>
<defs>
<linearGradient id="paint0_linear" x1="252.767" y1="196.935" x2="252.767" y2="123.767" gradientUnits="userSpaceOnUse">
<stop stop-color="#808080" stop-opacity="0.25"/>
<stop offset="0.54" stop-color="#808080" stop-opacity="0.12"/>
<stop offset="1" stop-color="#808080" stop-opacity="0.1"/>
</linearGradient>
<linearGradient id="paint1_linear" x1="1985.78" y1="33430" x2="1985.78" y2="26891.7" gradientUnits="userSpaceOnUse">
<stop stop-color="#808080" stop-opacity="0.25"/>
<stop offset="0.54" stop-color="#808080" stop-opacity="0.12"/>
<stop offset="1" stop-color="#808080" stop-opacity="0.1"/>
</linearGradient>
<clipPath id="clip0">
<rect width="352" height="198" fill="white"/>
</clipPath>
</defs>
</svg>
