<svg width="46" height="46" viewBox="0 0 46 46" fill="none" xmlns="http://www.w3.org/2000/svg">
<path d="M23 3.83333C33.5685 3.83333 42.1667 12.4315 42.1667 23C42.1667 33.5685 33.5685 42.1667 23 42.1667C12.4315 42.1667 3.83333 33.5685 3.83333 23C3.83333 12.4315 12.4315 3.83333 23 3.83333ZM23 0C10.2983 0 0 10.2983 0 23C0 35.7018 10.2983 46 23 46C35.7018 46 46 35.7018 46 23C46 10.2983 35.7018 0 23 0ZM19.2453 32.5833L10.6202 24.3052L13.294 21.5548L19.1973 27.1841L32.6543 13.4167L35.3797 16.1173L19.2453 32.5833Z" fill="black"/>
</svg>
