<svg width="673" height="486" viewBox="0 0 673 486" fill="none" xmlns="http://www.w3.org/2000/svg">
<g clip-path="url(#clip0)">
<path d="M672.027 482.273H0.972543C0.714609 482.273 0.467238 482.17 0.284851 481.988C0.102463 481.806 0 481.558 0 481.301C0 481.043 0.102463 480.795 0.284851 480.613C0.467238 480.431 0.714609 480.328 0.972543 480.328H672.027C672.285 480.328 672.533 480.431 672.715 480.613C672.898 480.795 673 481.043 673 481.301C673 481.558 672.898 481.806 672.715 481.988C672.533 482.17 672.285 482.273 672.027 482.273Z" fill="#CCCCCC"/>
<path d="M605.607 312.713H210.754C209.078 312.713 207.47 313.378 206.284 314.563C205.099 315.749 204.433 317.356 204.433 319.032C204.433 320.708 205.099 322.316 206.284 323.501C207.47 324.686 209.078 325.352 210.754 325.352H221.939V476.535C221.939 478.211 222.605 479.818 223.79 481.003C224.976 482.189 226.584 482.854 228.26 482.854C229.937 482.854 231.545 482.189 232.73 481.003C233.916 479.818 234.582 478.211 234.582 476.535L234.678 325.352H580.807V476.535C580.807 478.211 581.473 479.818 582.659 481.003C583.844 482.189 585.452 482.854 587.129 482.854C588.805 482.854 590.413 482.189 591.599 481.003C592.784 479.818 593.45 478.211 593.45 476.535V328.684L595.289 325.352H605.607C607.284 325.352 608.891 324.686 610.077 323.501C611.263 322.316 611.929 320.708 611.929 319.032C611.929 317.356 611.263 315.749 610.077 314.563C608.891 313.378 607.284 312.713 605.607 312.713Z" fill="#CCCCCC"/>
<path d="M429.664 316.02H310.059C307.743 316.017 305.523 315.096 303.885 313.459C302.247 311.822 301.326 309.603 301.324 307.287V241.458C301.326 239.143 302.247 236.923 303.885 235.286C305.523 233.649 307.743 232.728 310.059 232.725H429.664C431.98 232.728 434.2 233.649 435.838 235.286C437.475 236.923 438.396 239.143 438.399 241.458V307.287C438.396 309.603 437.475 311.822 435.838 313.459C434.2 315.096 431.98 316.017 429.664 316.02Z" fill="#3F3D56"/>
<path d="M429.663 239.446H310.059C309.526 239.447 309.014 239.66 308.637 240.037C308.26 240.414 308.047 240.925 308.046 241.459V307.289C308.047 307.822 308.26 308.334 308.637 308.711C309.014 309.088 309.526 309.3 310.059 309.302H429.663C430.197 309.3 430.708 309.088 431.085 308.711C431.463 308.334 431.675 307.822 431.676 307.289V241.459C431.675 240.925 431.463 240.414 431.085 240.037C430.708 239.66 430.197 239.447 429.663 239.446Z" fill="white"/>
<path d="M380.062 286.054C380.062 286.054 365.744 282.755 357.869 288.802C349.994 294.849 367.892 308.592 367.892 308.592L380.062 286.054Z" fill="#2F2E41"/>
<path d="M370.563 279.822C378.022 279.822 384.068 273.777 384.068 266.32C384.068 258.863 378.022 252.819 370.563 252.819C363.104 252.819 357.057 258.863 357.057 266.32C357.057 273.777 363.104 279.822 370.563 279.822Z" fill="#A0616A"/>
<path d="M360.119 247.367C361.02 245.839 362.325 244.589 363.891 243.756C365.458 242.923 367.224 242.539 368.995 242.646C370.847 242.878 372.655 243.384 374.359 244.147L383.188 247.59C385.472 248.481 387.975 249.572 388.966 251.815C389.886 253.896 389.2 256.299 388.505 258.466L385.201 268.765C384.836 266.434 384.208 264.152 383.33 261.962C382.437 259.757 380.825 257.919 378.754 256.747C376.461 255.571 373.758 255.595 371.183 255.719C367.537 255.894 363.573 256.358 360.982 258.929C359.607 260.389 358.674 262.209 358.293 264.178C357.918 266.137 357.73 268.126 357.73 270.12C356.234 267.551 354.975 264.852 353.966 262.055C353.137 259.973 352.664 257.766 352.568 255.527C352.482 253.268 353.231 251.057 354.673 249.317C355.406 248.467 356.361 247.838 357.431 247.501C358.502 247.164 359.645 247.133 360.733 247.411L360.119 247.367Z" fill="#2F2E41"/>
<path d="M402.811 297.761C402.684 297.305 402.425 296.897 402.067 296.587C401.709 296.277 401.268 296.08 400.798 296.021C400.767 295.999 400.734 295.98 400.701 295.962L380.538 284.667C379.963 284.344 379.285 284.256 378.646 284.421C378.006 284.585 377.455 284.989 377.107 285.55L371.593 294.475L363.287 286.172L363.155 286.04C362.729 285.614 362.166 285.352 361.566 285.299C360.965 285.247 360.365 285.407 359.871 285.753L343.301 297.353C343.272 297.353 343.243 297.363 343.214 297.363C342.421 297.495 341.696 297.893 341.161 298.493C340.625 299.092 340.309 299.856 340.267 300.658L339.839 309.302H406.011L402.811 297.761Z" fill="#2871FF"/>
<path d="M439.743 307.959H426.976C426.976 307.603 426.835 307.261 426.582 307.009C426.33 306.757 425.989 306.616 425.632 306.616H421.601C421.244 306.616 420.902 306.757 420.65 307.009C420.398 307.261 420.257 307.603 420.257 307.959H416.225C416.225 307.603 416.084 307.261 415.831 307.009C415.579 306.757 415.238 306.616 414.881 306.616H410.85C410.493 306.616 410.151 306.757 409.899 307.009C409.647 307.261 409.506 307.603 409.506 307.959H405.474C405.474 307.603 405.332 307.261 405.08 307.009C404.828 306.757 404.487 306.616 404.13 306.616H400.099C399.742 306.616 399.4 306.757 399.148 307.009C398.896 307.261 398.755 307.603 398.755 307.959H394.723C394.723 307.603 394.581 307.261 394.329 307.009C394.077 306.757 393.736 306.616 393.379 306.616H389.348C388.991 306.616 388.649 306.757 388.397 307.009C388.145 307.261 388.004 307.603 388.004 307.959H383.972C383.972 307.603 383.83 307.261 383.578 307.009C383.326 306.757 382.985 306.616 382.628 306.616H378.597C378.24 306.616 377.898 306.757 377.646 307.009C377.394 307.261 377.253 307.603 377.253 307.959H373.221C373.221 307.603 373.079 307.261 372.827 307.009C372.575 306.757 372.234 306.616 371.877 306.616H367.845C367.489 306.616 367.147 306.757 366.895 307.009C366.643 307.261 366.502 307.603 366.502 307.959H362.47C362.47 307.603 362.328 307.261 362.076 307.009C361.824 306.757 361.483 306.616 361.126 306.616H357.094C356.738 306.616 356.396 306.757 356.144 307.009C355.892 307.261 355.751 307.603 355.751 307.959H351.719C351.719 307.603 351.577 307.261 351.325 307.009C351.073 306.757 350.731 306.616 350.375 306.616H346.343C345.987 306.616 345.645 306.757 345.393 307.009C345.141 307.261 345 307.603 345 307.959H340.968C340.968 307.603 340.826 307.261 340.574 307.009C340.322 306.757 339.98 306.616 339.624 306.616H335.592C335.236 306.616 334.894 306.757 334.642 307.009C334.39 307.261 334.249 307.603 334.249 307.959H330.217C330.217 307.603 330.075 307.261 329.823 307.009C329.571 306.757 329.229 306.616 328.873 306.616H324.841C324.485 306.616 324.143 306.757 323.891 307.009C323.639 307.261 323.498 307.603 323.498 307.959H319.466C319.466 307.603 319.324 307.261 319.072 307.009C318.82 306.757 318.478 306.616 318.122 306.616H314.09C313.734 306.616 313.392 306.757 313.14 307.009C312.888 307.261 312.746 307.603 312.746 307.959H299.98C298.911 307.961 297.888 308.386 297.133 309.142C296.378 309.897 295.954 310.922 295.954 311.989C295.954 313.057 296.378 314.081 297.133 314.837C297.888 315.593 298.911 316.018 299.98 316.02H439.743C440.812 316.02 441.838 315.595 442.594 314.839C443.35 314.083 443.775 313.058 443.775 311.989C443.775 310.921 443.35 309.895 442.594 309.14C441.838 308.384 440.812 307.959 439.743 307.959Z" fill="#3F3D56"/>
<path d="M279.197 284.553V311.315H212.128C210.331 311.378 208.54 311.078 206.861 310.433C205.183 309.789 203.651 308.814 202.358 307.565C201.065 306.316 200.036 304.82 199.334 303.165C198.631 301.511 198.269 299.732 198.269 297.934C198.269 296.137 198.631 294.358 199.334 292.703C200.036 291.049 201.065 289.552 202.358 288.304C203.651 287.055 205.183 286.079 206.861 285.435C208.54 284.791 210.331 284.491 212.128 284.553H279.197Z" fill="#F2F2F2"/>
<path d="M280.844 311.109C280.844 311.382 280.736 311.644 280.543 311.837C280.35 312.03 280.088 312.138 279.815 312.139H210.933C207.192 312.139 203.605 310.653 200.959 308.008C198.314 305.364 196.828 301.777 196.828 298.037C196.828 294.297 198.314 290.711 200.959 288.066C203.605 285.422 207.192 283.936 210.933 283.936H279.815C280.088 283.936 280.35 284.044 280.543 284.237C280.736 284.43 280.844 284.692 280.844 284.965C280.844 285.238 280.736 285.5 280.543 285.693C280.35 285.886 280.088 285.994 279.815 285.994H210.933C207.74 285.997 204.679 287.267 202.422 289.526C200.166 291.784 198.898 294.845 198.898 298.037C198.898 301.229 200.166 304.291 202.422 306.549C204.679 308.807 207.74 310.077 210.933 310.08H279.815C280.088 310.08 280.349 310.188 280.543 310.381C280.736 310.575 280.844 310.836 280.844 311.109Z" fill="#2871FF"/>
<path d="M279.197 290.729H207.124C207.097 290.729 207.07 290.724 207.045 290.714C207.019 290.704 206.997 290.689 206.977 290.669C206.958 290.65 206.943 290.628 206.932 290.602C206.922 290.577 206.917 290.551 206.917 290.523C206.917 290.496 206.922 290.469 206.932 290.444C206.943 290.419 206.958 290.396 206.977 290.377C206.997 290.358 207.019 290.343 207.045 290.333C207.07 290.322 207.097 290.317 207.124 290.317H279.197C279.251 290.318 279.303 290.34 279.342 290.378C279.38 290.417 279.401 290.469 279.401 290.523C279.401 290.578 279.38 290.63 279.342 290.668C279.303 290.707 279.251 290.729 279.197 290.729Z" fill="#CCCCCC"/>
<path d="M279.197 295.67H207.124C207.097 295.67 207.07 295.665 207.045 295.655C207.019 295.644 206.997 295.629 206.977 295.61C206.958 295.591 206.943 295.568 206.932 295.543C206.922 295.518 206.917 295.491 206.917 295.464C206.917 295.437 206.922 295.41 206.932 295.385C206.943 295.36 206.958 295.337 206.977 295.318C206.997 295.299 207.019 295.284 207.045 295.273C207.07 295.263 207.097 295.258 207.124 295.258H279.197C279.251 295.258 279.303 295.28 279.342 295.319C279.38 295.357 279.401 295.41 279.401 295.464C279.401 295.518 279.38 295.57 279.342 295.609C279.303 295.648 279.251 295.669 279.197 295.67Z" fill="#CCCCCC"/>
<path d="M279.197 300.61H207.124C207.097 300.611 207.07 300.605 207.045 300.595C207.019 300.585 206.997 300.57 206.977 300.551C206.958 300.532 206.943 300.509 206.932 300.484C206.922 300.459 206.917 300.432 206.917 300.405C206.917 300.377 206.922 300.351 206.932 300.325C206.943 300.3 206.958 300.278 206.977 300.258C206.997 300.239 207.019 300.224 207.045 300.214C207.07 300.204 207.097 300.199 207.124 300.199H279.197C279.251 300.199 279.303 300.221 279.342 300.26C279.38 300.298 279.401 300.35 279.401 300.405C279.401 300.459 279.38 300.511 279.342 300.55C279.303 300.588 279.251 300.61 279.197 300.61Z" fill="#CCCCCC"/>
<path d="M279.197 305.551H207.124C207.097 305.551 207.07 305.546 207.045 305.536C207.019 305.525 206.997 305.51 206.977 305.491C206.958 305.472 206.943 305.449 206.932 305.424C206.922 305.399 206.917 305.372 206.917 305.345C206.917 305.318 206.922 305.291 206.932 305.266C206.943 305.241 206.958 305.218 206.977 305.199C206.997 305.18 207.019 305.165 207.045 305.155C207.07 305.144 207.097 305.139 207.124 305.139H279.197C279.251 305.14 279.303 305.162 279.342 305.2C279.38 305.239 279.401 305.291 279.401 305.345C279.401 305.399 279.38 305.452 279.342 305.49C279.303 305.529 279.251 305.551 279.197 305.551Z" fill="#CCCCCC"/>
<path d="M266.554 256.359V283.12H199.485C197.688 283.183 195.897 282.883 194.218 282.238C192.54 281.594 191.008 280.619 189.715 279.37C188.422 278.121 187.393 276.625 186.691 274.97C185.988 273.316 185.626 271.537 185.626 269.739C185.626 267.942 185.988 266.163 186.691 264.508C187.393 262.854 188.422 261.357 189.715 260.109C191.008 258.86 192.54 257.884 194.218 257.24C195.897 256.596 197.688 256.296 199.485 256.359H266.554Z" fill="#F2F2F2"/>
<path d="M268.201 282.914C268.201 283.187 268.093 283.449 267.9 283.642C267.706 283.835 267.445 283.943 267.172 283.944H198.29C196.438 283.944 194.604 283.579 192.892 282.87C191.181 282.161 189.626 281.123 188.316 279.813C187.006 278.504 185.967 276.949 185.258 275.239C184.55 273.528 184.185 271.694 184.185 269.842C184.185 267.99 184.55 266.157 185.258 264.446C185.967 262.735 187.006 261.181 188.316 259.871C189.626 258.562 191.181 257.523 192.892 256.814C194.604 256.106 196.438 255.741 198.29 255.741H267.172C267.445 255.741 267.707 255.849 267.9 256.042C268.093 256.235 268.201 256.497 268.201 256.77C268.201 257.043 268.093 257.305 267.9 257.498C267.707 257.691 267.445 257.799 267.172 257.799H198.29C195.097 257.802 192.036 259.072 189.779 261.331C187.522 263.589 186.255 266.65 186.255 269.842C186.255 273.034 187.522 276.096 189.779 278.354C192.036 280.612 195.097 281.882 198.29 281.885H267.172C267.445 281.885 267.706 281.994 267.899 282.187C268.093 282.38 268.201 282.641 268.201 282.914Z" fill="#3F3D56"/>
<path d="M266.554 262.534H194.481C194.454 262.534 194.427 262.529 194.402 262.519C194.376 262.509 194.354 262.494 194.334 262.474C194.315 262.455 194.3 262.433 194.289 262.407C194.279 262.382 194.273 262.356 194.273 262.328C194.273 262.301 194.279 262.274 194.289 262.249C194.3 262.224 194.315 262.201 194.334 262.182C194.354 262.163 194.376 262.148 194.402 262.138C194.427 262.128 194.454 262.122 194.481 262.123H266.554C266.608 262.123 266.66 262.145 266.698 262.183C266.737 262.222 266.758 262.274 266.758 262.328C266.758 262.383 266.737 262.435 266.698 262.473C266.66 262.512 266.608 262.534 266.554 262.534Z" fill="#CCCCCC"/>
<path d="M266.554 267.475H194.481C194.454 267.475 194.427 267.47 194.402 267.46C194.376 267.449 194.354 267.434 194.334 267.415C194.315 267.396 194.3 267.373 194.289 267.348C194.279 267.323 194.273 267.296 194.273 267.269C194.273 267.242 194.279 267.215 194.289 267.19C194.3 267.165 194.315 267.142 194.334 267.123C194.354 267.104 194.376 267.089 194.402 267.078C194.427 267.068 194.454 267.063 194.481 267.063H266.554C266.608 267.064 266.66 267.085 266.698 267.124C266.737 267.163 266.758 267.215 266.758 267.269C266.758 267.323 266.737 267.376 266.698 267.414C266.66 267.453 266.608 267.475 266.554 267.475Z" fill="#CCCCCC"/>
<path d="M266.554 272.415H194.481C194.454 272.416 194.427 272.41 194.402 272.4C194.376 272.39 194.354 272.375 194.334 272.356C194.315 272.337 194.3 272.314 194.289 272.289C194.279 272.264 194.273 272.237 194.273 272.21C194.273 272.182 194.279 272.156 194.289 272.131C194.3 272.105 194.315 272.083 194.334 272.064C194.354 272.044 194.376 272.029 194.402 272.019C194.427 272.009 194.454 272.004 194.481 272.004H266.554C266.608 272.004 266.66 272.026 266.698 272.065C266.737 272.103 266.758 272.155 266.758 272.21C266.758 272.264 266.737 272.316 266.698 272.355C266.66 272.393 266.608 272.415 266.554 272.415Z" fill="#CCCCCC"/>
<path d="M266.554 277.356H194.481C194.454 277.356 194.427 277.351 194.402 277.341C194.376 277.331 194.354 277.315 194.334 277.296C194.315 277.277 194.3 277.254 194.289 277.229C194.279 277.204 194.273 277.177 194.273 277.15C194.273 277.123 194.279 277.096 194.289 277.071C194.3 277.046 194.315 277.023 194.334 277.004C194.354 276.985 194.376 276.97 194.402 276.96C194.427 276.949 194.454 276.944 194.481 276.944H266.554C266.608 276.945 266.66 276.967 266.698 277.005C266.737 277.044 266.758 277.096 266.758 277.15C266.758 277.205 266.737 277.257 266.698 277.295C266.66 277.334 266.608 277.356 266.554 277.356Z" fill="#CCCCCC"/>
<path d="M344.575 406.438V383.104C344.575 382.073 344.165 381.084 343.436 380.354C342.706 379.625 341.717 379.215 340.685 379.215H252.184C251.152 379.215 250.162 379.625 249.433 380.354C248.703 381.084 248.293 382.073 248.293 383.104V406.438H344.575Z" fill="#CCCCCC"/>
<path d="M344.575 415.188H248.293V445.328H344.575V415.188Z" fill="#CCCCCC"/>
<path d="M248.293 454.078V477.412C248.293 478.443 248.703 479.432 249.433 480.161C250.162 480.891 251.152 481.301 252.184 481.301H340.685C341.717 481.301 342.706 480.891 343.436 480.161C344.165 479.432 344.575 478.443 344.575 477.412V454.078H248.293Z" fill="#CCCCCC"/>
<path d="M295.948 396.716C297.559 396.716 298.866 395.41 298.866 393.799C298.866 392.188 297.559 390.882 295.948 390.882C294.337 390.882 293.03 392.188 293.03 393.799C293.03 395.41 294.337 396.716 295.948 396.716Z" fill="white"/>
<path d="M295.948 435.605C297.559 435.605 298.866 434.299 298.866 432.689C298.866 431.078 297.559 429.772 295.948 429.772C294.337 429.772 293.03 431.078 293.03 432.689C293.03 434.299 294.337 435.605 295.948 435.605Z" fill="white"/>
<path d="M296.104 473.671C297.716 473.671 299.022 472.366 299.022 470.755C299.022 469.144 297.716 467.838 296.104 467.838C294.493 467.838 293.187 469.144 293.187 470.755C293.187 472.366 294.493 473.671 296.104 473.671Z" fill="white"/>
<path d="M333.659 352.61V379.372H266.59C264.794 379.434 263.002 379.135 261.324 378.49C259.645 377.846 258.114 376.87 256.82 375.622C255.527 374.373 254.499 372.877 253.796 371.222C253.094 369.568 252.732 367.789 252.732 365.991C252.732 364.194 253.094 362.415 253.796 360.76C254.499 359.105 255.527 357.609 256.82 356.36C258.114 355.112 259.645 354.136 261.324 353.492C263.002 352.848 264.794 352.548 266.59 352.61H333.659Z" fill="#F2F2F2"/>
<path d="M335.307 379.166C335.307 379.439 335.198 379.701 335.005 379.894C334.812 380.087 334.55 380.195 334.277 380.195H265.396C263.543 380.197 261.707 379.833 259.994 379.125C258.282 378.417 256.725 377.379 255.414 376.069C254.103 374.76 253.063 373.205 252.353 371.493C251.644 369.781 251.279 367.947 251.279 366.094C251.279 364.241 251.644 362.407 252.353 360.695C253.063 358.983 254.103 357.428 255.414 356.119C256.725 354.809 258.282 353.771 259.994 353.063C261.707 352.355 263.543 351.991 265.396 351.993H334.277C334.55 351.993 334.812 352.101 335.005 352.294C335.198 352.487 335.307 352.749 335.307 353.022C335.307 353.295 335.198 353.557 335.005 353.75C334.812 353.943 334.55 354.051 334.277 354.051H265.396C262.203 354.054 259.142 355.324 256.885 357.582C254.628 359.84 253.36 362.902 253.36 366.094C253.36 369.286 254.628 372.347 256.885 374.606C259.142 376.864 262.203 378.134 265.396 378.137H334.277C334.55 378.137 334.812 378.245 335.005 378.438C335.198 378.631 335.307 378.893 335.307 379.166Z" fill="#3F3D56"/>
<path d="M333.659 358.786H261.586C261.559 358.786 261.532 358.781 261.507 358.771C261.482 358.76 261.459 358.745 261.44 358.726C261.42 358.707 261.405 358.684 261.395 358.659C261.384 358.634 261.379 358.607 261.379 358.58C261.379 358.553 261.384 358.526 261.395 358.501C261.405 358.476 261.42 358.453 261.44 358.434C261.459 358.415 261.482 358.4 261.507 358.39C261.532 358.379 261.559 358.374 261.586 358.374H333.659C333.714 358.375 333.766 358.397 333.804 358.435C333.842 358.474 333.864 358.526 333.864 358.58C333.864 358.634 333.842 358.687 333.804 358.725C333.766 358.764 333.714 358.786 333.659 358.786Z" fill="#CCCCCC"/>
<path d="M333.659 363.727H261.586C261.559 363.727 261.532 363.722 261.507 363.711C261.482 363.701 261.459 363.686 261.44 363.667C261.42 363.648 261.405 363.625 261.395 363.6C261.384 363.575 261.379 363.548 261.379 363.521C261.379 363.494 261.384 363.467 261.395 363.442C261.405 363.417 261.42 363.394 261.44 363.375C261.459 363.356 261.482 363.34 261.507 363.33C261.532 363.32 261.559 363.315 261.586 363.315H333.659C333.714 363.315 333.766 363.337 333.804 363.376C333.842 363.414 333.864 363.466 333.864 363.521C333.864 363.575 333.842 363.627 333.804 363.666C333.766 363.704 333.714 363.726 333.659 363.727Z" fill="#CCCCCC"/>
<path d="M333.659 368.667H261.586C261.559 368.667 261.532 368.662 261.507 368.652C261.482 368.642 261.459 368.627 261.44 368.607C261.42 368.588 261.405 368.566 261.395 368.54C261.384 368.515 261.379 368.489 261.379 368.461C261.379 368.434 261.384 368.407 261.395 368.382C261.405 368.357 261.42 368.334 261.44 368.315C261.459 368.296 261.482 368.281 261.507 368.271C261.532 368.261 261.559 368.255 261.586 368.256H333.659C333.714 368.256 333.766 368.278 333.804 368.316C333.842 368.355 333.864 368.407 333.864 368.461C333.864 368.516 333.842 368.568 333.804 368.606C333.766 368.645 333.714 368.667 333.659 368.667Z" fill="#CCCCCC"/>
<path d="M333.659 373.608H261.586C261.559 373.608 261.532 373.603 261.507 373.593C261.482 373.582 261.459 373.567 261.44 373.548C261.42 373.529 261.405 373.506 261.395 373.481C261.384 373.456 261.379 373.429 261.379 373.402C261.379 373.375 261.384 373.348 261.395 373.323C261.405 373.298 261.42 373.275 261.44 373.256C261.459 373.237 261.482 373.222 261.507 373.211C261.532 373.201 261.559 373.196 261.586 373.196H333.659C333.714 373.196 333.766 373.218 333.804 373.257C333.842 373.295 333.864 373.348 333.864 373.402C333.864 373.456 333.842 373.508 333.804 373.547C333.766 373.586 333.714 373.607 333.659 373.608Z" fill="#CCCCCC"/>
<path d="M243.243 177.941V7.31264C243.245 5.37389 244.017 3.51517 245.388 2.14427C246.759 0.773358 248.619 0.00220527 250.558 0H385.478C387.417 0.00221811 389.276 0.773376 390.648 2.14428C392.019 3.51518 392.79 5.37389 392.793 7.31264V177.941C392.79 179.879 392.019 181.738 390.648 183.109C389.276 184.48 387.417 185.251 385.478 185.253H250.558C248.619 185.251 246.759 184.48 245.388 183.109C244.017 181.738 243.245 179.879 243.243 177.941ZM250.558 1.62503C249.05 1.62672 247.604 2.2265 246.537 3.29276C245.47 4.35903 244.87 5.80471 244.869 7.31264V177.941C244.87 179.449 245.47 180.894 246.537 181.961C247.604 183.027 249.05 183.627 250.558 183.628H385.478C386.986 183.627 388.432 183.027 389.499 181.961C390.565 180.894 391.165 179.449 391.167 177.941V7.31264C391.165 5.80471 390.565 4.35903 389.499 3.29276C388.432 2.2265 386.986 1.62672 385.478 1.62503H250.558Z" fill="#E6E6E6"/>
<path d="M325.584 78.3603V43.325C325.585 42.3556 325.97 41.4262 326.656 40.7408C327.342 40.0553 328.271 39.6697 329.241 39.6686H358.94C359.909 39.6697 360.839 40.0553 361.525 40.7408C362.21 41.4262 362.596 42.3556 362.597 43.325V78.3603C362.596 79.3297 362.21 80.259 361.525 80.9445C360.839 81.63 359.909 82.0155 358.94 82.0166H329.241C328.271 82.0155 327.342 81.63 326.656 80.9445C325.97 80.259 325.585 79.3297 325.584 78.3603Z" fill="#2871FF"/>
<path d="M267.877 94.6106V59.5753C267.878 58.6059 268.264 57.6765 268.95 56.9911C269.635 56.3056 270.565 55.9201 271.535 55.919H301.233C302.203 55.9201 303.133 56.3056 303.818 56.9911C304.504 57.6765 304.89 58.6059 304.891 59.5753V94.6106C304.89 95.58 304.504 96.5094 303.818 97.1949C303.133 97.8803 302.203 98.2659 301.233 98.2669H271.535C270.565 98.2659 269.635 97.8803 268.95 97.1948C268.264 96.5094 267.878 95.58 267.877 94.6106Z" fill="#CCCCCC"/>
<path d="M314.205 144.174V109.139C314.206 108.169 314.592 107.24 315.277 106.554C315.963 105.869 316.893 105.483 317.862 105.482H347.561C348.531 105.483 349.46 105.869 350.146 106.554C350.832 107.24 351.217 108.169 351.218 109.139V144.174C351.217 145.143 350.832 146.073 350.146 146.758C349.46 147.444 348.531 147.829 347.561 147.83H317.862C316.893 147.829 315.963 147.444 315.277 146.758C314.592 146.073 314.206 145.143 314.205 144.174Z" fill="#FF6584"/>
<path d="M491.682 304.353H461.125C460.835 304.353 460.548 304.419 460.288 304.547L452.576 308.407C452.322 308.515 452.106 308.695 451.954 308.925C451.801 309.155 451.72 309.425 451.72 309.7C451.72 309.976 451.801 310.246 451.954 310.475C452.106 310.705 452.322 310.886 452.576 310.993L460.288 314.853C460.548 314.981 460.835 315.048 461.125 315.048H491.682C492.103 315.072 492.517 314.929 492.834 314.651C493.15 314.373 493.345 313.981 493.374 313.56V305.841C493.345 305.42 493.15 305.028 492.834 304.749C492.517 304.471 492.103 304.329 491.682 304.353Z" fill="#3F3D56"/>
<path d="M493.374 305.841V313.56C493.345 313.981 493.15 314.373 492.834 314.651C492.517 314.929 492.103 315.072 491.682 315.048H485.594V304.353H491.682C492.103 304.329 492.517 304.471 492.834 304.749C493.15 305.028 493.345 305.42 493.374 305.841Z" fill="#2871FF"/>
<path d="M491.452 246.602C492.836 246.005 494.331 245.707 495.838 245.727C497.345 245.748 498.831 246.086 500.199 246.721C501.566 247.356 502.784 248.272 503.772 249.41C504.76 250.548 505.497 251.882 505.934 253.324C506.07 253.782 506.174 254.248 506.245 254.72L548.977 275.903L558.866 269.351L571.17 283.512L556.071 295.772C554.255 297.235 552.015 298.073 549.685 298.163C547.355 298.253 545.058 297.589 543.134 296.271L499.779 266.298C499.457 266.435 499.127 266.555 498.792 266.658C497.349 267.095 495.83 267.221 494.335 267.03C492.839 266.838 491.401 266.333 490.115 265.547C488.828 264.761 487.723 263.713 486.87 262.47C486.017 261.227 485.437 259.818 485.166 258.335C485.086 257.905 485.034 257.47 485.008 257.033C484.888 254.844 485.441 252.672 486.593 250.807C487.745 248.942 489.441 247.474 491.452 246.602Z" fill="#FFB8B8"/>
<path d="M580.454 377.026H533.762C533.762 378.368 485.641 379.457 485.641 379.457C484.886 380.026 484.197 380.678 483.589 381.402C481.761 383.581 480.762 386.335 480.768 389.179V391.124C480.769 394.347 482.05 397.437 484.33 399.716C486.61 401.995 489.701 403.276 492.925 403.277H580.454C583.677 403.274 586.768 401.993 589.047 399.714C591.326 397.436 592.608 394.346 592.611 391.124V389.179C592.606 385.958 591.324 382.869 589.045 380.591C586.766 378.313 583.677 377.031 580.454 377.026Z" fill="#3F3D56"/>
<path d="M529.664 484.462H542.307V402.794H529.664V484.462Z" fill="#3F3D56"/>
<path d="M493.68 484.018C493.68 485.384 512.839 484.546 536.472 484.546C560.105 484.546 579.264 485.384 579.264 484.018C579.264 482.653 560.105 471.823 536.472 471.823C512.839 471.823 493.68 482.653 493.68 484.018Z" fill="#3F3D56"/>
<path d="M505.093 474.446L493.171 474.445L487.498 443.531L505.095 443.532L505.093 474.446Z" fill="#FFB8B8"/>
<path d="M508.134 486L469.689 485.999V485.512C469.689 483.548 470.076 481.603 470.828 479.788C471.58 477.973 472.682 476.324 474.072 474.935C475.462 473.546 477.111 472.444 478.927 471.692C480.742 470.94 482.688 470.553 484.653 470.553H484.654L508.135 470.554L508.134 486Z" fill="#2F2E41"/>
<path d="M487.26 455.276L463.491 401.989C461.506 397.498 461.287 392.425 462.876 387.779C464.465 383.133 467.747 379.257 472.067 376.921L523.625 349.282L547.152 347.282L568.854 345.31L569.01 345.575C569.21 345.913 573.877 353.97 570.722 362.805C568.33 369.506 562.107 374.74 552.226 378.362C529.163 386.816 502.52 394.042 492.136 396.755C491.677 396.872 491.248 397.085 490.878 397.38C490.507 397.675 490.203 398.045 489.985 398.466C489.767 398.882 489.638 399.338 489.605 399.807C489.572 400.275 489.637 400.745 489.795 401.187L511.878 450.786C512.108 451.415 512.191 452.088 512.12 452.754C512.049 453.421 511.826 454.062 511.468 454.628C511.11 455.194 510.627 455.671 510.056 456.021C509.484 456.371 508.84 456.586 508.173 456.648L491.672 457.849C491.532 457.862 491.393 457.869 491.254 457.869C490.409 457.868 489.582 457.623 488.873 457.163C488.164 456.703 487.604 456.047 487.26 455.276Z" fill="#2F2E41"/>
<path d="M510.929 474.446L499.006 474.445L493.333 443.531L510.931 443.532L510.929 474.446Z" fill="#FFB8B8"/>
<path d="M513.97 486L475.524 485.999V485.512C475.524 483.548 475.911 481.603 476.663 479.788C477.415 477.973 478.518 476.324 479.907 474.935C481.297 473.546 482.946 472.444 484.762 471.692C486.577 470.94 488.523 470.553 490.488 470.553H490.489L513.97 470.554L513.97 486Z" fill="#2F2E41"/>
<path d="M494.068 458.192L470.298 404.906C468.314 400.415 468.094 395.341 469.684 390.696C471.273 386.05 474.555 382.173 478.875 379.838L530.433 352.199L553.96 350.199L575.662 348.227L575.818 348.492C576.018 348.83 580.684 356.887 577.53 365.721C575.138 372.422 568.915 377.657 559.034 381.279C535.97 389.733 509.328 396.958 498.944 399.672C498.485 399.789 498.056 400.002 497.685 400.297C497.315 400.592 497.011 400.962 496.793 401.383C496.575 401.799 496.446 402.255 496.413 402.723C496.38 403.192 496.445 403.662 496.602 404.104L518.685 453.702C518.916 454.331 518.999 455.005 518.928 455.671C518.857 456.337 518.634 456.978 518.276 457.545C517.918 458.111 517.435 458.588 516.864 458.938C516.292 459.288 515.648 459.502 514.981 459.564L498.48 460.765C498.34 460.779 498.201 460.785 498.062 460.785C497.217 460.785 496.39 460.54 495.681 460.08C494.972 459.62 494.412 458.964 494.068 458.192Z" fill="#2F2E41"/>
<path d="M482.221 295.409C472.232 282.127 464.336 267.395 458.806 251.725C458.486 250.788 458.509 249.767 458.871 248.845C459.232 247.923 459.91 247.159 460.782 246.689L494.963 228.381C495.515 228.082 496.129 227.914 496.757 227.888C497.385 227.863 498.01 227.981 498.586 228.234C499.172 228.488 499.692 228.873 500.107 229.359C500.522 229.845 500.82 230.419 500.979 231.038C504.958 246.138 512.436 260.09 522.809 271.765C523.236 272.241 523.549 272.807 523.724 273.421C523.899 274.036 523.931 274.682 523.819 275.311C523.71 275.929 523.462 276.515 523.093 277.024C522.724 277.532 522.244 277.95 521.689 278.245L487.509 296.554C486.635 297.02 485.623 297.161 484.655 296.951C483.686 296.742 482.824 296.195 482.221 295.409Z" fill="#CCCCCC"/>
<path d="M484.553 293.657C484.737 293.887 484.995 294.045 485.283 294.104C485.571 294.164 485.871 294.121 486.131 293.983L520.311 275.674C520.477 275.587 520.621 275.464 520.731 275.312C520.841 275.161 520.915 274.986 520.946 274.802C520.981 274.607 520.971 274.407 520.917 274.216C520.862 274.026 520.764 273.851 520.63 273.705C509.951 261.686 502.253 247.323 498.157 231.777C498.11 231.585 498.019 231.407 497.891 231.256C497.763 231.105 497.602 230.985 497.42 230.907C497.249 230.831 497.062 230.795 496.875 230.803C496.687 230.81 496.504 230.861 496.34 230.952L462.16 249.26C461.901 249.4 461.699 249.626 461.589 249.899C461.479 250.172 461.468 250.475 461.558 250.755C466.988 266.145 474.743 280.613 484.553 293.657Z" fill="white"/>
<path d="M595.773 290.526L569.004 300.695L562.468 282.546C561.601 280.136 561.613 277.497 562.503 275.096C563.393 272.694 565.104 270.684 567.333 269.421C569.588 268.144 572.225 267.715 574.769 268.211C577.313 268.708 579.595 270.097 581.204 272.129L595.773 290.526Z" fill="#2871FF"/>
<path d="M527.685 362.432C527.122 362.034 526.65 361.52 526.3 360.925C525.951 360.33 525.732 359.668 525.659 358.982C522.23 326.986 524.618 301.947 532.959 282.433C534.428 279.067 536.641 276.078 539.431 273.691C542.222 271.303 545.518 269.578 549.071 268.647L570.709 267.555L570.821 267.609C575.704 270 579.686 273.9 582.177 278.732C584.668 283.563 585.536 289.069 584.65 294.432C577.691 312.771 571.863 331.866 576.307 347.269C576.494 347.913 576.548 348.588 576.467 349.254C576.386 349.919 576.172 350.561 575.837 351.142C575.512 351.703 575.075 352.192 574.554 352.578C574.033 352.964 573.438 353.239 572.806 353.387L531.592 363.188C530.924 363.347 530.23 363.362 529.557 363.231C528.883 363.101 528.245 362.829 527.685 362.432Z" fill="#2871FF"/>
<path d="M563.488 259.475C576.68 259.475 587.375 248.784 587.375 235.596C587.375 222.408 576.68 211.717 563.488 211.717C550.296 211.717 539.601 222.408 539.601 235.596C539.601 248.784 550.296 259.475 563.488 259.475Z" fill="#FFB8B8"/>
<path d="M497.206 254.509L478.59 262.724C477.882 263.036 477.08 263.054 476.358 262.774C475.637 262.495 475.056 261.941 474.743 261.234L474.282 260.191C473.971 259.483 473.953 258.681 474.232 257.96C474.512 257.239 475.066 256.658 475.773 256.345L494.389 248.13C495.097 247.818 495.9 247.8 496.621 248.08C497.343 248.359 497.924 248.913 498.237 249.62L498.697 250.663C499.009 251.371 499.027 252.173 498.747 252.894C498.468 253.615 497.914 254.196 497.206 254.509Z" fill="#CCCCCC"/>
<path d="M504.014 267.148L485.398 275.363C484.69 275.675 483.887 275.693 483.166 275.413C482.445 275.134 481.864 274.58 481.551 273.873L481.09 272.83C480.779 272.122 480.761 271.32 481.04 270.599C481.32 269.878 481.874 269.297 482.581 268.984L501.197 260.769C501.905 260.457 502.708 260.439 503.429 260.719C504.151 260.998 504.731 261.552 505.045 262.259L505.505 263.302C505.817 264.01 505.835 264.812 505.555 265.533C505.276 266.255 504.721 266.835 504.014 267.148Z" fill="#CCCCCC"/>
<path d="M518.371 316.516L476.868 283.785C476.537 283.901 476.201 284 475.86 284.082C474.395 284.424 472.875 284.455 471.397 284.172C469.92 283.888 468.519 283.297 467.284 282.437C466.042 281.577 464.998 280.461 464.222 279.164C463.446 277.867 462.956 276.42 462.785 274.919C462.507 272.519 463.048 270.095 464.32 268.041C465.593 265.987 467.523 264.423 469.796 263.603C471.215 263.095 472.725 262.891 474.229 263.007C475.732 263.122 477.193 263.553 478.518 264.273C479.842 264.992 481 265.983 481.915 267.181C482.83 268.379 483.481 269.756 483.826 271.223C483.933 271.688 484.008 272.16 484.049 272.635L525.364 296.462L535.646 290.545L547.035 305.451L531.072 316.825C529.203 318.146 526.958 318.829 524.67 318.773C522.382 318.718 520.173 317.926 518.371 316.516Z" fill="#FFB8B8"/>
<path d="M552.099 310.093L528.419 293.995L539.548 278.238C541.026 276.146 543.196 274.643 545.674 273.996C548.153 273.348 550.781 273.597 553.094 274.7C555.434 275.814 557.297 277.729 558.349 280.097C559.4 282.465 559.569 285.131 558.827 287.613L552.099 310.093Z" fill="#2871FF"/>
<path d="M554.73 232.04C548.591 236.24 540.53 240.558 534.259 236.085C530.142 233.148 528.845 227.709 530.514 222.935C533.517 214.352 541.766 210.573 549.655 207.677C559.909 203.911 571.075 200.915 581.662 203.612C592.249 206.309 601.605 216.555 599.694 227.308C598.157 235.956 589.997 243.151 591.156 251.857C592.321 260.619 602.178 265.231 610.88 266.797C619.582 268.363 629.32 268.866 635.574 275.115C643.552 283.086 641.56 297.334 634.053 305.75C626.546 314.166 615.218 317.98 604.24 320.574C589.697 324.01 573.966 325.816 560.153 320.113C546.34 314.411 535.591 299.06 539.592 284.666C541.282 278.585 545.264 273.447 549.112 268.444C552.96 263.442 556.856 258.21 558.324 252.073C559.548 246.958 558.642 241.02 555.249 237.183C554.632 236.512 554.244 235.662 554.14 234.756C554.036 233.85 554.222 232.934 554.671 232.141L554.73 232.04Z" fill="#2F2E41"/>
<path d="M106.077 348.06C99.9223 350.223 93.3137 350.765 86.8883 349.634C80.4629 348.502 74.4373 345.735 69.392 341.6C56.5428 330.819 52.5141 313.057 49.2362 296.61C46.0044 280.394 42.7725 264.179 39.5407 247.963L59.8393 261.936C74.4368 271.984 89.3632 282.354 99.4705 296.908C109.578 311.462 113.99 331.33 105.869 347.079" fill="#E6E6E6"/>
<path d="M104.342 406.957C106.397 391.997 108.509 376.844 107.068 361.724C105.788 348.295 101.69 335.179 93.3468 324.425C88.9181 318.727 83.5293 313.845 77.4225 309.999C75.8301 308.994 74.3644 311.517 75.9499 312.517C86.5164 319.193 94.6891 329.051 99.2899 340.67C104.371 353.591 105.187 367.675 104.312 381.4C103.782 389.701 102.66 397.946 101.529 406.182C101.44 406.554 101.495 406.947 101.684 407.28C101.874 407.613 102.182 407.861 102.548 407.976C102.921 408.076 103.318 408.026 103.654 407.835C103.99 407.644 104.237 407.329 104.342 406.957H104.342Z" fill="#F2F2F2"/>
<path d="M84.5539 380.485C81.9141 384.495 78.2855 387.759 74.0176 389.961C69.7498 392.163 64.9867 393.229 60.1871 393.057C47.8522 392.472 37.5688 383.865 28.3118 375.695L0.931526 351.527L19.0527 350.66C32.0844 350.037 45.4524 349.455 57.8646 353.473C70.2769 357.49 81.7241 367.159 83.9937 380.003" fill="#E6E6E6"/>
<path d="M110.148 415.557C100.26 398.065 88.79 378.625 68.2953 372.412C62.5967 370.69 56.6215 370.073 50.6912 370.595C48.8222 370.756 49.2889 373.636 51.1545 373.475C61.0949 372.65 71.0161 375.274 79.2479 380.906C87.1692 386.296 93.3367 393.789 98.5569 401.736C101.754 406.604 104.619 411.678 107.483 416.745C108.399 418.364 111.075 417.195 110.148 415.557Z" fill="#F2F2F2"/>
<path d="M125.993 433.968C125.66 430.109 124.273 426.415 121.985 423.289C119.697 420.162 116.595 417.723 113.016 416.238V406.126H96.0504V416.557C92.6479 418.115 89.7196 420.548 87.5642 423.607C85.4087 426.665 84.1032 430.241 83.7807 433.968L79.7913 480.328H129.982L125.993 433.968Z" fill="#F2F2F2"/>
</g>
<defs>
<clipPath id="clip0">
<rect width="673" height="486" fill="white"/>
</clipPath>
</defs>
</svg>
